<svg xmlns="http://www.w3.org/2000/svg" viewBox="0 0 750 500"><g id="freepik--background-complete--inject-19"><path d="M136.4,125.22H59.75s3.81-5,8-5.59c0,0,8.17-24.32,21.85-24.5,12.72-.16,17.82,15,17.82,15s5.89-6.78,11.52-3.68,8.82,12,8.82,12S134.1,121.8,136.4,125.22Z" style="fill:#ebebeb"></path><path d="M665.3,285.56H588.65s3.81-5,8-5.58c0,0,8.17-24.33,21.85-24.5,12.72-.16,17.82,15,17.82,15s5.89-6.78,11.52-3.68,8.82,12,8.82,12S663,282.15,665.3,285.56Z" style="fill:#ebebeb"></path><path d="M396.7,167h96.93s0-6.2-13.35-7.41c0,0-12.2-27.07-30.81-23.43C437.88,138.39,432,154.31,432,154.31s-8.75-12.52-15.76-10.1S405,160,405,160,397.8,163.47,396.7,167Z" style="fill:#ebebeb"></path><path d="M276.21,74.5h65.91s-6.22-5.79-9-5.79S322.3,49.27,312,50.1s-15.78,15.3-15.78,15.3S283.68,61.47,276.21,74.5Z" style="fill:#ebebeb"></path><path d="M217.66,218H274s-2.8-3.65-5.89-4.11c0,0-6-17.88-16.07-18-9.36-.12-13.11,11-13.11,11s-4.33-5-8.47-2.71S224,213,224,213,219.35,215.48,217.66,218Z" style="fill:#ebebeb"></path><path d="M633.89,130.23h56.36s-2.8-3.65-5.89-4.1c0,0-6-17.89-16.07-18-9.35-.12-13.1,11-13.1,11s-4.33-5-8.47-2.7-6.48,8.81-6.48,8.81S635.58,127.72,633.89,130.23Z" style="fill:#ebebeb"></path></g><g id="freepik--Balloons--inject-19"><path d="M169.62,217.93A111,111,0,0,0,187.09,191c4.58-10.24,6.86-21.15,8.29-32.22,1.81-14,3-28.16,4.56-42.22,0-.23-.32-.24-.34,0-1.45,12.13-2.89,24.26-4.44,36.37-1.45,11.28-3.19,22.59-7.33,33.24-8.21,21.09-24,38.25-41.45,52.21-10.85,8.68-22.51,16.34-34.15,23.92-.12.08,0,.29.11.21C133,249.9,153.71,236.4,169.62,217.93Z" style="fill:#263238"></path><path d="M197.73,113.23s-6.14,9.34-5.74,10.06,13.56,4.5,14,4,1-11.41,1-11.41Z" style="fill:#60B1B6"></path><path d="M225.57,32.7C203.25,26.29,180,39,173.45,66.57s15.65,46.58,26.87,49.81c8.11,2.33,42.25,4.94,52.11-29.37C260.85,57.69,247.82,39.09,225.57,32.7Z" style="fill:#60B1B6"></path><path d="M241.67,68.58a15.38,15.38,0,1,1,.12-21.75A15.38,15.38,0,0,1,241.67,68.58Z" style="fill:#fff;opacity:0.4"></path><path d="M95,392.87c-10.26-15.75-13.1-33.82-14-52.26a169.93,169.93,0,0,1,1.19-32.36.19.19,0,0,1,.37.07A159.93,159.93,0,0,0,82,337.18,185.87,185.87,0,0,0,85.06,365c3.74,18.06,13.68,33.26,26.41,46.33,7.17,7.36,15,14,22.76,20.7.2.17-.07.48-.27.31C119.75,420.68,105.17,408.43,95,392.87Z" style="fill:#263238"></path><path d="M86,310.62s3.65,10.56,3.09,11.16-14.25,1-14.56.45,1.82-11.31,1.82-11.31Z" style="fill:#455a64"></path><path d="M78.86,225.71c23.21-.72,42.6,17.29,42.19,45.65S94.41,312.66,82.73,313c-8.43.26-42.16-5.62-43.27-41.29C38.51,241.25,55.72,226.43,78.86,225.71Z" style="fill:#455a64"></path><path d="M78.86,225.71c23.21-.72,42.6,17.29,42.19,45.65S94.41,312.66,82.73,313c-8.43.26-42.16-5.62-43.27-41.29C38.51,241.25,55.72,226.43,78.86,225.71Z" style="fill:#455a64"></path><g id="freepik--ByysuD.tif--inject-19"><path d="M79.3,248.86c5.48-6.37,11-8.2,17.19-5.68a13.82,13.82,0,0,1-3.1,26.42l.18,5.14,3.82-.13A1.54,1.54,0,0,1,99,276.1v.07a1.55,1.55,0,0,1-1.49,1.6l-3.89.13.15,4.16a1.56,1.56,0,0,1-1.5,1.6h0a1.54,1.54,0,0,1-1.59-1.49L90.49,278l-4,.13a1.54,1.54,0,0,1-1.6-1.49h0a1.54,1.54,0,0,1,1.49-1.59l3.91-.14-.17-5.12-4.54-1.18a14.05,14.05,0,0,1-9.78,6.56l.18,5.16,3.86-.13a1.54,1.54,0,0,1,1.6,1.49v.09a1.54,1.54,0,0,1-1.49,1.59l-3.94.14.14,4.15a1.55,1.55,0,0,1-1.49,1.6h0a1.54,1.54,0,0,1-1.6-1.49l-.14-4.1-3.91.13a1.55,1.55,0,0,1-1.6-1.49v-.07a1.55,1.55,0,0,1,1.49-1.6l3.85-.13-.18-5.19a13.79,13.79,0,0,1-11.1-7.5,13.49,13.49,0,0,1-.82-10.65A13.9,13.9,0,0,1,79.3,248.86Zm2.84,1.73c4.74,4,6.2,9,4.81,15,3.64,2,10.46,1.3,13.68-4.51a10.71,10.71,0,0,0-4.24-14.46A10.55,10.55,0,0,0,82.14,250.59ZM78,251.93c-4.65-2.63-11.19-.34-13.85,4.8a10.65,10.65,0,0,0,5.11,14.52c4.95,2.29,11.56.14,13.47-4.4C78.12,262.84,76.59,257.85,78,251.93Zm6.06,11.7c.76-3.8-.73-8.26-3.18-9.67A9.86,9.86,0,0,0,84.09,263.63Z" style="fill:#60B1B6"></path></g><circle cx="92.44" cy="250.64" r="15.38" transform="translate(-72.75 40.7) rotate(-17.95)" style="fill:#fff;opacity:0.4"></circle><path d="M646.19,217.67a111,111,0,0,1-21.93-23.4c-6.32-9.26-10.48-19.6-13.84-30.25-4.25-13.49-7.94-27.19-11.92-40.76-.07-.22.27-.29.34-.07,3.56,11.68,7.11,23.36,10.77,35,3.41,10.85,7.12,21.68,13.07,31.43,11.79,19.31,30.36,33.42,50,44.09,12.21,6.64,25,12.12,37.83,17.54.14.06.07.28-.07.22C687.92,242.68,665.11,233,646.19,217.67Z" style="fill:#263238"></path><path d="M602.38,120.44s5.63,9.65,5.2,10.34-13.79,3.77-14.2,3.27-.42-11.44-.42-11.44Z" style="fill:#37474f"></path><path d="M578.87,38.53c22.63-5.21,45.15,8.69,50.25,36.6s-18.12,45.69-29.5,48.31c-8.22,1.89-42.45,2.68-50.46-32.11C542.31,61.61,556.31,43.73,578.87,38.53Z" style="fill:#37474f"></path><g id="freepik--uGypPF--inject-19"><path d="M599.94,94.1c-1.48.4-2.81.76-4.16,1.11s-2.42-.12-2.66-1.2.4-1.86,1.76-2.23,2.67-.72,4.08-1.1c-.33-1.22-.62-2.32-.94-3.49-4.58.3-8.5-1.15-11.36-4.83S583.3,74.54,584.83,70l-2-1c-.42.76-.8,1.52-1.23,2.26-.74,1.26-1.75,1.63-2.72,1s-1.12-1.56-.4-2.79c.43-.74,1-1.44,1.45-2.19l-3.62-2.1c.36,1.38.67,2.5,1,3.62.36,1.42-.06,2.42-1.14,2.71s-1.95-.36-2.34-1.77c-.68-2.53-1.37-5.07-2-7.61a1.82,1.82,0,0,1,1.5-2.57q3.86-1,7.73-2.07c1.37-.36,2.27.06,2.56,1.15s-.24,1.88-1.64,2.28c-1.17.33-2.35.63-3.8,1l3.9,2c.39-.81.84-1.9,1.41-2.93A1.82,1.82,0,0,1,586,60c1,.53,1.2,1.6.52,2.77-.58,1-1.23,1.93-1.92,3l2.09.92a12.78,12.78,0,0,1,14.36-3.92l4.73-8.24c-1.13.3-2.3.63-3.47.93-1.42.36-2.27,0-2.58-1.12s.27-1.93,1.62-2.3c2.57-.7,5.15-1.38,7.73-2.06,1.42-.37,2.23.07,2.61,1.45q1,3.86,2.06,7.73c.35,1.32-.11,2.31-1.15,2.6s-2-.33-2.32-1.63c-.33-1.14-.62-2.3-.86-3.17l-4.6,8c7.09,6.13,5.34,17.21-3.21,21.26l.93,3.47c1.45-.38,2.82-.77,4.21-1.12s2.16.1,2.46,1.15-.25,1.9-1.5,2.26-2.29.65-3.45.92c-.69.16-.85.49-.65,1.14.28.91.53,1.82.72,2.74a1.78,1.78,0,1,1-3.45.83C600.57,96.54,600.3,95.43,599.94,94.1Zm-1-10.46a9.34,9.34,0,1,0-4.82-18,9.34,9.34,0,1,0,4.82,18Z" style="fill:#fff"></path></g><path d="M608.17,61.58A15.38,15.38,0,1,1,595.23,44.1,15.37,15.37,0,0,1,608.17,61.58Z" style="fill:#fff;opacity:0.4"></path><path d="M619,388.93c10.75-15.42,14.16-33.39,15.63-51.79a170,170,0,0,0-.18-32.38c0-.25-.39-.19-.37.06a159,159,0,0,1-.24,28.86,186.45,186.45,0,0,1-4,27.75c-4.31,17.93-14.72,32.82-27.86,45.48-7.39,7.12-15.41,13.53-23.4,20-.2.16.06.48.27.32C593.42,416,608.38,404.17,619,388.93Z" style="fill:#263238"></path><path d="M630.6,307s-4,10.45-3.44,11.06,14.21,1.47,14.54.91-1.46-11.36-1.46-11.36Z" style="fill:#60B1B6"></path><path d="M640.43,222.36c-23.18-1.45-43.13,15.94-43.6,44.31s25.32,42.11,37,42.85c8.42.52,42.32-4.29,44.55-39.92C680.27,239.16,663.53,223.81,640.43,222.36Z" style="fill:#60B1B6"></path><g id="freepik--jOXAjS.tif--inject-19"><path d="M642.88,232.32h11.77a.19.19,0,0,1,.19.2h0v11.68h0a.42.42,0,0,0,.42.42H666.2c1,0,.88-.11.88.85,0,2.71,0,9.15,0,10.52a.66.66,0,0,1-.17.45c-.38.46-1.37,1.61-2.22,2.57a.7.7,0,0,1-1.22-.46v-7.32c-.24.21-.38.33-.51.46-2.71,2.7-5.41,5.41-8.13,8.1-.35.35-.32.56-.07.95a14.08,14.08,0,0,1,1.8,12.38,14.28,14.28,0,0,1-14.61,10,14.37,14.37,0,0,1-13.24-11.87.52.52,0,0,0-.51-.51,14.35,14.35,0,0,1-11.62-11c-.18-.75-.28-1.52-.41-2.28s0-1.22,0-1.84c.07-.42.15-.83.21-1.25a14.39,14.39,0,0,1,19.71-11.17c1.08.45,2.08,1.07,3,1.56l8.85-8.85h-7.27a.7.7,0,0,1-.51-1.18c.68-.71,1.55-1.6,2.2-2.22A.67.67,0,0,1,642.88,232.32Zm-9.9,38.5a9.71,9.71,0,0,0,2.93,5.31,9.9,9.9,0,0,0,7.83,2.77A10.09,10.09,0,0,0,653,267.82a9.72,9.72,0,0,0-3.49-6.73,9.34,9.34,0,0,0-4.57-2.22C643.48,265.4,639.5,269.32,633,270.82Zm7.55-16.23a10.08,10.08,0,1,0-12.33,11.75c.43.1.54,0,.64-.42A14.17,14.17,0,0,1,639,255C639.49,254.82,640,254.72,640.53,254.59Zm1.78-6.59.28.42a13.78,13.78,0,0,1,2.24,5.46c.09.53.28.73.77.81a13.25,13.25,0,0,1,5.37,2.22.6.6,0,0,0,.94-.09c2.68-2.71,5.38-5.39,8.07-8.09a6.1,6.1,0,0,0,.41-.46l0-.12h-8a1.16,1.16,0,0,1-1.16-1.16V239.1Zm-9.14,18.26c3-.28,7.28-4.66,7.16-7.24C636.6,259.76,633.52,263.5,633.17,266.26Z" style="fill:#455a64"></path></g><path d="M662.16,249a15.38,15.38,0,1,1-11.42-18.51A15.38,15.38,0,0,1,662.16,249Z" style="fill:#fff;opacity:0.4"></path></g><g id="freepik--Confetti--inject-19"><path d="M98.71,285.51a3.13,3.13,0,1,1-3.51-2.69A3.12,3.12,0,0,1,98.71,285.51Z" style="fill:#60B1B6"></path><path d="M104.74,133.18a3.13,3.13,0,1,1-3.52-2.69A3.13,3.13,0,0,1,104.74,133.18Z" style="fill:#263238"></path><path d="M262.33,130.05a3.13,3.13,0,1,1-3.52-2.69A3.14,3.14,0,0,1,262.33,130.05Z" style="fill:#60B1B6"></path><path d="M288.89,198.61a3.13,3.13,0,1,1-3.51-2.69A3.13,3.13,0,0,1,288.89,198.61Z" style="fill:#263238"></path><path d="M175.63,84.63a3.13,3.13,0,1,1-3.52-2.69A3.12,3.12,0,0,1,175.63,84.63Z" style="fill:#455a64"></path><path d="M158.27,110a1.56,1.56,0,1,1-1.75-1.34A1.55,1.55,0,0,1,158.27,110Z" style="fill:#60B1B6"></path><path d="M400,265a1.56,1.56,0,1,1-1.75-1.34A1.55,1.55,0,0,1,400,265Z" style="fill:#60B1B6"></path><path d="M345,88a1.56,1.56,0,1,1-1.75-1.34A1.56,1.56,0,0,1,345,88Z" style="fill:#60B1B6"></path><path d="M539.3,52.82A1.55,1.55,0,0,1,538,54.57a1.56,1.56,0,1,1,1.34-1.75Z" style="fill:#263238"></path><path d="M362.73,171.85a1.56,1.56,0,1,1-1.75-1.34A1.57,1.57,0,0,1,362.73,171.85Z" style="fill:#263238"></path><path d="M144.25,225.65a1.56,1.56,0,1,1-1.75-1.34A1.55,1.55,0,0,1,144.25,225.65Z" style="fill:#60B1B6"></path><path d="M506.8,312.46a1.56,1.56,0,1,1-1.76-1.34A1.57,1.57,0,0,1,506.8,312.46Z" style="fill:#455a64"></path><path d="M284.92,321.5a1.56,1.56,0,1,1-1.75-1.34A1.56,1.56,0,0,1,284.92,321.5Z" style="fill:#60B1B6"></path><path d="M280.65,249a3.13,3.13,0,1,1-3.51-2.69A3.12,3.12,0,0,1,280.65,249Z" style="fill:#60B1B6"></path><path d="M305.18,103.42a3.13,3.13,0,1,1-3.52-2.69A3.13,3.13,0,0,1,305.18,103.42Z" style="fill:#455a64"></path><path d="M428.45,52.61a3.13,3.13,0,1,1-3.51-2.69A3.13,3.13,0,0,1,428.45,52.61Z" style="fill:#60B1B6"></path><path d="M640.92,367.29l4.43-1.48s-3-1.56-3-6.4,4.15-6.76,2.36-11.15l-4.94,1.32A9.15,9.15,0,0,1,640,357C638.67,359.81,637.49,363.12,640.92,367.29Z" style="fill:#60B1B6"></path><path d="M366.91,233.43l4.43-1.49s-3-1.55-3-6.4,4.14-6.76,2.35-11.15l-4.94,1.33a9.12,9.12,0,0,1,.23,7.42C364.66,225.94,363.48,229.25,366.91,233.43Z" style="fill:#263238"></path><path d="M273.06,356.81l-4.37-1.65s1.36,3.12-1.7,6.88-7.48,2.63-8.85,7.17l4.66,2.08a9.16,9.16,0,0,1,4.51-5.91C270.09,364,273.09,362.22,273.06,356.81Z" style="fill:#60B1B6"></path><path d="M346.35,138.6,342,137s1.36,3.11-1.7,6.87-7.48,2.64-8.85,7.17l4.66,2.09a9.16,9.16,0,0,1,4.51-5.91C343.38,145.83,346.38,144,346.35,138.6Z" style="fill:#455a64"></path><path d="M151.73,270.6,147.36,269s1.36,3.12-1.7,6.88-7.48,2.63-8.85,7.16l4.66,2.09a9.16,9.16,0,0,1,4.51-5.91C148.76,277.82,151.76,276,151.73,270.6Z" style="fill:#263238"></path><path d="M550.89,295.93l-4.37-1.65s1.36,3.12-1.7,6.88-7.48,2.63-8.85,7.16l4.66,2.09a9.16,9.16,0,0,1,4.51-5.91C547.92,303.15,550.92,301.33,550.89,295.93Z" style="fill:#455a64"></path><path d="M272.83,115.66l.63-4.63s-2.73,2-7.08-.14-4.22-6.71-8.94-7l-1,5a9.13,9.13,0,0,1,6.76,3.09C265.12,114.36,267.56,116.88,272.83,115.66Z" style="fill:#263238"></path><path d="M355.28,267.44l.64-4.63s-2.74,2-7.08-.13-4.22-6.71-8.95-7.05l-1,5a9.17,9.17,0,0,1,6.76,3.09C347.58,266.14,350,268.67,355.28,267.44Z" style="fill:#60B1B6"></path><path d="M380.87,369l.64-4.63s-2.74,2-7.08-.13-4.23-6.71-8.95-7l-1,5a9.16,9.16,0,0,1,6.75,3.09C373.16,367.67,375.6,370.2,380.87,369Z" style="fill:#455a64"></path><path d="M559.06,126.42l.63-4.63s-2.74,2-7.08-.13-4.22-6.72-9-7l-1,5a9.13,9.13,0,0,1,6.76,3.09C551.35,125.12,553.79,127.64,559.06,126.42Z" style="fill:#60B1B6"></path><path d="M176.22,153.86l.89,4.58s1.94-2.79,6.74-2.14,6.16,5,10.74,3.8l-.66-5.07a9.18,9.18,0,0,1-7.39-.75C183.94,152.61,180.81,151,176.22,153.86Z" style="fill:#455a64"></path><path d="M119.83,237.7l7.46-2.11s3.56,9.32-3.84,11.95C123.45,247.54,126,242.58,119.83,237.7Z" style="fill:#455a64"></path><path d="M121.05,257.39l-6.4-4.18s.94-6.08,8.8-5.67C123.45,247.54,117.48,251.91,121.05,257.39Z" style="fill:#455a64"></path><path d="M644.08,148.59l-4.92-2.68s-4,6,.81,9C640,155,639,151.05,644.08,148.59Z" style="fill:#60B1B6"></path><path d="M640.1,162.27l5.18-1.92s.3-4.44-5.31-5.4C640,155,643.48,159,640.1,162.27Z" style="fill:#60B1B6"></path><path d="M126.1,82.89l-4.93-2.68s-4,6,.81,9C122,89.25,121,85.35,126.1,82.89Z" style="fill:#60B1B6"></path><path d="M122.11,96.57l5.18-1.92s.3-4.44-5.31-5.4C122,89.25,125.5,93.27,122.11,96.57Z" style="fill:#60B1B6"></path><path d="M381.65,292.58l-4.93-2.67s-4,6,.81,9C377.53,299,376.55,295.05,381.65,292.58Z" style="fill:#455a64"></path><path d="M377.66,306.27l5.18-1.93s.3-4.44-5.31-5.39C377.53,299,381.05,303,377.66,306.27Z" style="fill:#455a64"></path><path d="M573.76,115.15a3.13,3.13,0,1,1,3.51,2.69A3.13,3.13,0,0,1,573.76,115.15Z" style="fill:#263238"></path><path d="M403.15,304.3a3.13,3.13,0,1,1,3.52,2.69A3.14,3.14,0,0,1,403.15,304.3Z" style="fill:#60B1B6"></path><path d="M623.22,191.28a3.13,3.13,0,1,1,3.52,2.69A3.13,3.13,0,0,1,623.22,191.28Z" style="fill:#60B1B6"></path><path d="M610.25,304.11a1.55,1.55,0,0,1,1.34-1.75,1.56,1.56,0,1,1-1.34,1.75Z" style="fill:#60B1B6"></path><path d="M423.19,214.26a3.13,3.13,0,1,1,3.52,2.69A3.14,3.14,0,0,1,423.19,214.26Z" style="fill:#60B1B6"></path><path d="M89,350.33A3.13,3.13,0,1,1,92.56,353,3.14,3.14,0,0,1,89,350.33Z" style="fill:#455a64"></path><path d="M405.16,241.29l-.63,4.62s2.74-2,7.08.14,4.22,6.71,8.95,7l1-5A9.13,9.13,0,0,1,414.8,245C412.87,242.59,410.43,240.06,405.16,241.29Z" style="fill:#455a64"></path><path d="M655.8,336.58l-7.46,2.12s-3.55-9.33,3.84-12C652.18,326.74,649.66,331.7,655.8,336.58Z" style="fill:#455a64"></path><path d="M654.58,316.89l6.4,4.18s-.94,6.08-8.8,5.67C652.18,326.74,658.15,322.37,654.58,316.89Z" style="fill:#455a64"></path><path d="M503.3,295.84,495.83,298s-3.55-9.32,3.84-12C499.67,286,497.16,291,503.3,295.84Z" style="fill:#263238"></path><path d="M502.07,276.16l6.41,4.17s-.94,6.09-8.81,5.67C499.67,286,505.65,281.64,502.07,276.16Z" style="fill:#263238"></path><path d="M298.24,275.59l-7.46,2.11s-3.56-9.32,3.84-11.95C294.62,265.75,292.1,270.71,298.24,275.59Z" style="fill:#263238"></path><path d="M297,255.9l6.41,4.17s-.94,6.09-8.8,5.68C294.62,265.75,300.59,261.38,297,255.9Z" style="fill:#263238"></path><path d="M611.54,216.56l4.93,2.68s4-6-.81-9C615.66,210.2,616.64,214.1,611.54,216.56Z" style="fill:#455a64"></path><path d="M615.53,202.87l-5.18,1.93s-.3,4.44,5.31,5.4C615.66,210.2,612.14,206.17,615.53,202.87Z" style="fill:#455a64"></path><path d="M426.79,175.29l4.92,2.68s4-6-.81-9C430.9,168.93,431.89,172.83,426.79,175.29Z" style="fill:#60B1B6"></path><path d="M430.77,161.61l-5.18,1.92s-.3,4.44,5.31,5.4C430.9,168.93,427.38,164.91,430.77,161.61Z" style="fill:#60B1B6"></path><path d="M509.17,352.18l.82,5.55s7.2-.43,6.74-6.08C516.73,351.65,514.21,354.78,509.17,352.18Z" style="fill:#60B1B6"></path><path d="M522.51,347.15l-4.65-3s-3.73,2.42-1.13,7.48C516.73,351.65,517.84,346.42,522.51,347.15Z" style="fill:#60B1B6"></path></g><g id="freepik--character-4--inject-19"><path d="M592.8,313.15s-.08.41-.24,1.18c-.27,1.3-.73,3.62-1.37,6.78a1.36,1.36,0,0,0,0,.17c-.17.9-.36,1.87-.58,2.91-.08.37-.15.76-.23,1.16-.13.58-.24,1.19-.37,1.82-.2,1-.4,2-.62,3.09-.17.88-.35,1.79-.55,2.73l-.06.27c-.14.73-.29,1.47-.44,2.23,0,.13-.06.27-.08.4l-.3,1.5c-.35,1.7-.7,3.48-1.07,5.32-.26,1.27-.51,2.56-.79,3.89a2.93,2.93,0,0,1,0,.29c-.07.35-.15.7-.22,1s-.11.61-.17.92l0,.08c-.3,1.47-.6,3-.91,4.52-.15.77-.31,1.56-.47,2.36-.08.36-.15.71-.22,1.08l-.24,1.19c-.78,3.89-1.59,7.94-2.43,12.11l-.57,2.83c-1.91,9.49-3.92,19.54-6,29.65-.24,1.13-.46,2.26-.68,3.38-.74,3.69-1.48,7.4-2.23,11.08-.16.81-.32,1.61-.47,2.4-.45,2.24-.9,4.46-1.35,6.68q-.83,4.11-1.63,8.15a.17.17,0,0,1,0,.07c-.66,3.25-1.3,6.46-1.92,9.61,0,.24-.09.47-.15.7-.27,1.36-.54,2.7-.8,4-.13.65-.26,1.32-.4,2s-.23,1.15-.35,1.72H495.53C509.13,396.32,530,315.76,530,315.76h0l5-.2,57.81-2.41Z" style="fill:#a6a6a6"></path><path d="M579.31,327.85c-.36,1.72-.73,3.44-1.14,5.15-.09.38-.17.75-.26,1.13,0,.17-.09.35-.13.52Q571.3,362.09,565,389.56q-2.9,12.51-5.71,25.06-.87,3.84-1.72,7.68a1.16,1.16,0,0,0,0,.18q-1.63,7.29-3.23,14.59c-.58,2.59-1.15,5.19-1.71,7.78l-1.66,7.63h-1.22q1.53-7.07,3.08-14.14l1-4.51q1.69-7.66,3.41-15.32s0-.06,0-.09c.55-2.45,1.1-4.9,1.67-7.35q3.2-14.15,6.57-28.26c2.19-9.14,4.36-18.29,6.67-27.4,1.16-4.6,2.2-9.23,3.39-13.83.74-2.84,1.45-5.67,2.21-8.49.05-.23.1-.45.16-.66.42-1.55.83-3.09,1.28-4.63A.1.1,0,0,1,579.31,327.85Z" style="fill:#263238"></path><path d="M592.79,313.15l-.23,1.18c-.27,1.29-.74,3.61-1.37,6.78a1.36,1.36,0,0,0,0,.17c-.18.9-.37,1.87-.58,2.91-.08.37-.15.76-.23,1.16-.13.58-.24,1.19-.37,1.82-.2,1-.4,2-.62,3.09-.18.88-.36,1.79-.55,2.73l-.06.27c-.14.73-.29,1.47-.44,2.23,0,.13-.06.27-.08.4l-.3,1.5c-.35,1.7-.7,3.48-1.07,5.32-.26,1.27-.51,2.56-.79,3.89a2.93,2.93,0,0,1,0,.29c-.07.35-.15.7-.22,1s-.11.61-.18.91c0,0,0,.06,0,.09-.3,1.47-.6,3-.91,4.52-.15.78-.32,1.56-.47,2.36-.08.36-.15.71-.22,1.08l-.24,1.19c-.78,3.89-1.59,7.94-2.43,12.11-.19.94-.37,1.88-.57,2.83-1.91,9.49-3.92,19.54-6,29.65-.24,1.13-.46,2.26-.68,3.38-.74,3.69-1.48,7.4-2.23,11.08-.15.81-.32,1.6-.47,2.4-.45,2.24-.9,4.46-1.35,6.68-.54,2.75-1.09,5.46-1.63,8.15a.17.17,0,0,1,0,.07c-.65,3.26-1.3,6.46-1.92,9.61,0,.24-.09.47-.15.7-.27,1.36-.54,2.7-.8,4-.13.65-.26,1.32-.4,2s-.22,1.15-.34,1.72h-8.14l-2.44-15.41-.52-3.24-11.46-72.28-7.29-46v0Z" style="fill:#263238"></path><path d="M627.14,452.48H559.8l-2.32-30-.21-2.68a.49.49,0,0,0,0-.12l-.1-1.26-3.94-50.83-.05-.75L551,365.66l-1-.5c-2.83-1.49-5-2.48-6.56-3.13-.45-.19-.86-.34-1.23-.48a9.6,9.6,0,0,0-3-.81c-.71-1.79-8.81-42.83-9.22-45a.66.66,0,0,0,0-.09l80.58-3.39s16.84,38.14,8.77,66C618.88,379.9,623.34,418.4,627.14,452.48Z" style="fill:#a6a6a6"></path><path d="M562.78,452.48h-2.31c-.93-9.79-1.94-20-3-30.18-.09-.83-.17-1.66-.25-2.5a.49.49,0,0,0,0-.12c0-.4-.08-.78-.12-1.17-1.78-18.08-3.47-35.94-4.48-51.14v0a.51.51,0,0,1,1,0l.06.52c1.17,11.65,3.29,28.07,5.09,43.25.13,1.19.28,2.38.41,3.55.9,7.76,1.68,15.05,2.18,21Q562.11,444.07,562.78,452.48Z" style="fill:#263238"></path><path d="M614.15,452.48h-1.23c-.43-3.59-.84-7.19-1.26-10.78-1.23-10.57-2.48-21.13-3.68-31.7-.61-5.39-1.19-10.79-1.83-16.18-.61-5.05-1.49-10.16-.51-15.21,1-4.89,2.82-9.52,3.57-14.45a66.23,66.23,0,0,0,.44-15.54c-.85-10.41-3.47-20.53-6.27-30.54-.17-.6.22-.56.42,0,3.93,12,6.28,21.58,6.9,32.87a65.48,65.48,0,0,1-1,16.36c-1.14,5.67-3.39,11-3.35,16.84,0,5.34,1,10.75,1.63,16l2,16.17c1.28,10.78,2.51,21.56,3.77,32.35Z" style="fill:#263238"></path><path d="M601.4,353.06c-1.27-.44-6.69-1.55-8-2.06a30.55,30.55,0,0,1-7-3.85,15.86,15.86,0,0,1-4.72-6.31c-.62-1.31-3.58-8.38-3.76-8.41a.16.16,0,0,0-.18.09c-.24.46.68,3.08,1,4,.47,1.52.93,3,1.46,4.55a15.68,15.68,0,0,0,4.79,7.28,24.16,24.16,0,0,0,7.84,4.08,25.3,25.3,0,0,0,4.46,1,12.09,12.09,0,0,0,4.24.08C601.67,353.43,601.58,353.12,601.4,353.06Z" style="fill:#263238"></path><path d="M552.9,354.94c-.29-2.58-.59-5.17-.92-7.74-.77-5.88-1.63-11.78-2.91-17.57-.1-.46-.73-.26-.68.18.59,4.57,1.31,9.12,1.93,13.69s1.35,9.1,1.62,13.66c.09,1.37.09,3.71-1.58,4.16-2.25.6-3.44-2.34-4.06-3.94A76.66,76.66,0,0,1,542.94,345c-1-4.78-1.54-9.64-2.21-14.46,0-.18-.31-.14-.3,0,.37,9.61.92,19.66,4.89,28.59.77,1.74,2.08,3.49,4.14,3.64h.09a.47.47,0,0,0,0,.17c.06.27.14.53.2.79s.1.45.16.67c.12.46.2.93.34,1.39a.36.36,0,0,0,.7-.11.29.29,0,0,0,.18-.29,7.8,7.8,0,0,0-.73-2.7,3.37,3.37,0,0,0,2.39-2.19C553.46,358.78,553.1,356.77,552.9,354.94Z" style="fill:#263238"></path><path d="M543.6,362a138.33,138.33,0,0,1,21.64,10.21c.27.16.09.58-.2.45-7.3-3.18-14.73-6.22-21.84-9.79A.48.48,0,0,1,543.6,362Z" style="fill:#263238"></path><path d="M421.38,261.47c6.82,6.22,25.74,13.5,31,13.5s18.69-31.76,16.06-36.45S441.2,214.64,431.8,214,414.31,255,421.38,261.47Z" style="fill:#d3766a"></path><rect x="456.06" y="63" width="3.94" height="238.12" transform="translate(835.1 499.48) rotate(-161.59)" style="fill:#263238"></rect><rect x="434.63" y="75.99" width="90.55" height="90.55" transform="matrix(-0.95, -0.32, 0.32, -0.95, 896.94, 387.92)" style="fill:#fff"></rect><path d="M508.65,178.69l-.12,0-86-28.65,0-.11,28.64-86,.12,0,86,28.64,0,.12Zm-85.84-28.84,85.68,28.52L537,92.69,451.33,64.17Z" style="fill:#263238"></path><path d="M516.59,131.3c-.33.47-.66.92-1,1.39a43.43,43.43,0,0,1-7.86,8.09,58.21,58.21,0,0,1-13.47,7.91c-12,5.12-23.46,5.95-24.56,5.76s-9.7-7.64-16.34-18.88a60.39,60.39,0,0,1-6.21-14.26,46.93,46.93,0,0,1-1.6-8.83c-.11-1.37-.15-2.69-.14-4a38.76,38.76,0,0,1,1.86-11.8,27.33,27.33,0,0,1,6.08-10.44,18.88,18.88,0,0,1,17.1-5.92c9.34,1.5,13.6,10,15.46,16a36.15,36.15,0,0,1,1.38,6.3,34.5,34.5,0,0,1,4.59-4.4c4.5-3.62,11.83-7.74,19.74-5.08l.49.17s0,0,0,0c6.79,2.5,11.46,8,12.09,15.54a26.76,26.76,0,0,1-1.92,11.83A48.5,48.5,0,0,1,516.59,131.3Z" style="fill:#263238"></path><path d="M516.59,131.3c-.33.47-.66.92-1,1.39a43.43,43.43,0,0,1-7.86,8.09,58.21,58.21,0,0,1-13.47,7.91c-12,5.12-23.46,5.95-24.56,5.76s-9.7-7.64-16.34-18.88a60.39,60.39,0,0,1-6.21-14.26,46.93,46.93,0,0,1-1.6-8.83c-.11-1.37-.15-2.69-.14-4a38.76,38.76,0,0,1,1.86-11.8,27.33,27.33,0,0,1,6.08-10.44c8.95,2.74,20.59,6.33,32.56,10.12a36.15,36.15,0,0,1,1.38,6.3,34.5,34.5,0,0,1,4.59-4.4c11.5,3.67,23,7.41,32.35,10.65a26.76,26.76,0,0,1-1.92,11.83A48.5,48.5,0,0,1,516.59,131.3Z" style="fill:#37474f"></path><path d="M516.59,131.3c-.33.47-.66.92-1,1.39a43.43,43.43,0,0,1-7.86,8.09,58.21,58.21,0,0,1-13.47,7.91c-12,5.12-23.46,5.95-24.56,5.76s-9.7-7.64-16.34-18.88a60.39,60.39,0,0,1-6.21-14.26,46.93,46.93,0,0,1-1.6-8.83c-.11-1.37-.15-2.69-.14-4a38.76,38.76,0,0,1,1.86-11.8c19.88,6.1,54,16.69,75,24.06A48.5,48.5,0,0,1,516.59,131.3Z" style="fill:#455a64"></path><path d="M516.59,131.3c-.33.47-.66.92-1,1.39a43.43,43.43,0,0,1-7.86,8.09,58.21,58.21,0,0,1-13.47,7.91c-12,5.12-23.46,5.95-24.56,5.76s-9.7-7.64-16.34-18.88a60.39,60.39,0,0,1-6.21-14.26,46.93,46.93,0,0,1-1.6-8.83c-.11-1.37-.15-2.69-.14-4C465.42,114.6,496.66,124.34,516.59,131.3Z" style="fill:#60B1B6"></path><path d="M507.73,140.78a58.21,58.21,0,0,1-13.47,7.91c-12,5.12-23.46,5.95-24.56,5.76s-9.7-7.64-16.34-18.88a60.39,60.39,0,0,1-6.21-14.26C465.58,127,490.09,134.72,507.73,140.78Z" style="fill:#dbdbdb"></path><path d="M494.26,148.69c-12,5.12-23.46,5.95-24.56,5.76s-9.7-7.64-16.34-18.88C466.68,139.72,481.54,144.43,494.26,148.69Z" style="fill:#ebebeb"></path><path d="M462.35,106.9l4-12.12,2.81.93L466,105.38l5.87,2-.82,2.46Z" style="fill:#fff"></path><path d="M476.85,111.85a6,6,0,0,1-2.29-1.35,6.41,6.41,0,0,1-1.43-2,6.58,6.58,0,0,1-.56-2.37,6.49,6.49,0,0,1,.32-2.44,6.49,6.49,0,0,1,5.51-4.4,6.14,6.14,0,0,1,2.59.31,6,6,0,0,1,2.28,1.34,6.19,6.19,0,0,1,1.43,2,6.66,6.66,0,0,1,.23,4.78,6.3,6.3,0,0,1-1.22,2.15,6.67,6.67,0,0,1-1.9,1.54,6.81,6.81,0,0,1-2.37.72A6.1,6.1,0,0,1,476.85,111.85Zm-1.12-7.2a4.92,4.92,0,0,0-.24,1.42,3.86,3.86,0,0,0,.21,1.37,3.3,3.3,0,0,0,.73,1.16,3.18,3.18,0,0,0,1.26.76,3,3,0,0,0,2.78-.38,3.65,3.65,0,0,0,1-1,4.77,4.77,0,0,0,.65-1.27,5,5,0,0,0,.24-1.43,3.68,3.68,0,0,0-.22-1.37,3.35,3.35,0,0,0-.74-1.13,3.39,3.39,0,0,0-2.75-.9,3.35,3.35,0,0,0-1.27.5,3.62,3.62,0,0,0-1,1A4.83,4.83,0,0,0,475.73,104.65Z" style="fill:#fff"></path><path d="M489.9,102.61l0,9.55,5.69-7.66,2.95,1-8.63,10.59-2.35-.78-.61-13.67Z" style="fill:#fff"></path><path d="M505,118.36l-.82,2.46L495.61,118l4-12.13,8.37,2.79-.82,2.46-5.57-1.85-.78,2.35,4.78,1.59-.76,2.28-4.78-1.6-.86,2.58Z" style="fill:#fff"></path><path d="M475.67,116.82l.82-2.48,2.73.91-.82,2.47Zm-3.33,10,3-9,2.74.91-3,9Z" style="fill:#fff"></path><path d="M480.43,129.69a7.62,7.62,0,0,1-2.13-1.12,5.53,5.53,0,0,1-1.53-1.69l1.53-1.35a8.47,8.47,0,0,0,1.31,1.4,4.24,4.24,0,0,0,1.39.81,1.65,1.65,0,0,0,.88.08.64.64,0,0,0,.48-.45.66.66,0,0,0-.18-.69,6.06,6.06,0,0,0-1.14-.89,16.8,16.8,0,0,1-1.36-1,4.81,4.81,0,0,1-.84-.87,1.76,1.76,0,0,1-.34-.85,2.34,2.34,0,0,1,.12-.95,2.9,2.9,0,0,1,.69-1.15,3,3,0,0,1,1.07-.71,3.8,3.8,0,0,1,1.34-.23,4.45,4.45,0,0,1,1.5.25,6.4,6.4,0,0,1,1.79.9,4.88,4.88,0,0,1,1.37,1.56l-1.6,1.28a8.16,8.16,0,0,0-1.11-1.22,3.54,3.54,0,0,0-1.08-.63,1.66,1.66,0,0,0-.81-.07.65.65,0,0,0-.5.47.66.66,0,0,0,.14.68,5.78,5.78,0,0,0,1.11.82,15.17,15.17,0,0,1,1.44,1.05,4.68,4.68,0,0,1,.88.93,2,2,0,0,1,.35.92,2.44,2.44,0,0,1-.13,1,2.72,2.72,0,0,1-1.7,1.78A4.41,4.41,0,0,1,480.43,129.69Z" style="fill:#fff"></path><path d="M452.41,136.75l4-12.13,2.8.93L456,135.22l5.88,1.95-.82,2.46Z" style="fill:#fff"></path><path d="M466.91,141.69a5.91,5.91,0,0,1-2.28-1.35,6.49,6.49,0,0,1-1.43-2,6.68,6.68,0,0,1-.24-4.82,6.3,6.3,0,0,1,1.22-2.15,6.4,6.4,0,0,1,4.28-2.25,6.35,6.35,0,0,1,2.6.31,6,6,0,0,1,2.28,1.35,6.3,6.3,0,0,1,1.43,2,6.8,6.8,0,0,1,.23,4.78,6.55,6.55,0,0,1-1.22,2.15,6.72,6.72,0,0,1-1.91,1.54,6.31,6.31,0,0,1-2.36.72A6,6,0,0,1,466.91,141.69Zm-1.11-7.2a4.61,4.61,0,0,0-.25,1.42,3.65,3.65,0,0,0,.22,1.37,3.14,3.14,0,0,0,.72,1.16,3.22,3.22,0,0,0,1.27.76,3.07,3.07,0,0,0,1.51.14,3.17,3.17,0,0,0,1.27-.52,3.8,3.8,0,0,0,1-1,4.74,4.74,0,0,0,.64-1.27,4.67,4.67,0,0,0,.25-1.43,3.6,3.6,0,0,0-.23-1.36,3.06,3.06,0,0,0-2-1.89,3,3,0,0,0-1.5-.15,3.3,3.3,0,0,0-1.26.5,3.8,3.8,0,0,0-1,1A4.8,4.8,0,0,0,465.8,134.49Z" style="fill:#fff"></path><path d="M480,132.45V142l5.68-7.67,3,1L480,145.92l-2.36-.79L477,131.46Z" style="fill:#fff"></path><path d="M495,148.2l-.82,2.46-8.52-2.84,4-12.12,8.37,2.78-.82,2.46-5.56-1.85-.79,2.35,4.78,1.6-.75,2.27-4.78-1.59-.86,2.57Z" style="fill:#fff"></path><path d="M446.07,217.88c1.39,4.69-4.93,3.64-4.93,3.64s8.73,3.71,8.29,9.1c-.44,5.19-8,3.65-8.58,3.54.46.2,8.4,3.82,7.39,9.19-1.05,5.59-8.4,2.73-8.88,2.54.38.33,5.27,4.72,3.58,8.62-2.91,6.71-15.72-4.17-21.6-3.44,0,0,.1,10.1,0,10.4,0,0-12.4-10.11-12.94-18.09a5.09,5.09,0,0,1,3.58-5.3s-4.36-2.82-3.7-7.07c.34-2.18,4.14-3.57,4.14-3.57s-3.4-2.41-2.58-6.15c.65-3,4.35-3.93,4.35-3.93s-2.19-3.81-.53-6.66C417,205,443.1,207.83,446.07,217.88Z" style="fill:#d3766a"></path><path d="M414.8,217.13c-.09,0-.1-.13,0-.14,8.81-1.15,18.84.29,26.69,4.55.26.14.15.62-.17.52C432.38,219.21,424.22,217.4,414.8,217.13Z" style="fill:#263238"></path><path d="M412.33,227.37c-.1,0-.1-.17,0-.19,9.09-1.13,20.34.79,28.82,6.77.29.21.34.68,0,.47C435.21,230.87,420.81,227.57,412.33,227.37Z" style="fill:#263238"></path><path d="M439.81,246.51c-8.35-5.42-17.6-7.61-27.42-8.5-.13,0-.1-.19,0-.21,4.93-.88,11.13.34,15.87,1.7A26.22,26.22,0,0,1,440,246.22C440.13,246.35,440,246.63,439.81,246.51Z" style="fill:#263238"></path><path d="M441.14,221.52a28.52,28.52,0,0,1,4.55,3,9.92,9.92,0,0,1,3.25,4.1,3.31,3.31,0,0,1,0,2.36,4.86,4.86,0,0,1-1.47,1.93,5.87,5.87,0,0,1-4.7.78l-3.92-.85L442.2,235a16.35,16.35,0,0,1,4,3.51,5.87,5.87,0,0,1,1.52,4.56,3.36,3.36,0,0,1-3,3,10.14,10.14,0,0,1-5-.88l-4.39-1.82,3.53,3.14a15.31,15.31,0,0,1,2.59,3,6.39,6.39,0,0,1,1.21,3.46,3.05,3.05,0,0,1-1.68,2.71,6.72,6.72,0,0,1-3.74.1,52.22,52.22,0,0,1-7.82-2.58c-1.3-.49-2.61-1-3.94-1.41a9.87,9.87,0,0,0-4.12-.67,10.76,10.76,0,0,1,4,1c1.28.52,2.53,1.11,3.79,1.7a44.32,44.32,0,0,0,7.86,3.05,7.75,7.75,0,0,0,4.48,0,4.3,4.3,0,0,0,2.64-3.9,7.77,7.77,0,0,0-1.39-4.33,16.76,16.76,0,0,0-2.83-3.35l-.85,1.32a11.57,11.57,0,0,0,5.9,1.1,4.82,4.82,0,0,0,3-1.43,5.42,5.42,0,0,0,1.4-2.93,7.43,7.43,0,0,0-1.91-5.77,17.74,17.74,0,0,0-4.45-3.79l-.53,1.31a7,7,0,0,0,5.76-1.27,5.92,5.92,0,0,0,1.69-2.48,4.22,4.22,0,0,0-.08-3,10.31,10.31,0,0,0-3.78-4.19A24.25,24.25,0,0,0,441.14,221.52Z" style="fill:#263238"></path><path d="M464.81,234.52s-16.2-35.68-27-22.51c-3.22,3.91-11.78,23.81-7.82,25.61,5.12,2.32,10.25-5.32,12.7-10.63,0,0,3.8,12.91,13.58,12.94A9.72,9.72,0,0,0,464.81,234.52Z" style="fill:#d3766a"></path><path d="M438.74,211a20.47,20.47,0,0,0-3.66,4.71,44.8,44.8,0,0,0-2.74,5.34,68.57,68.57,0,0,0-3.94,11.35,11.16,11.16,0,0,0-.33,3.16,4.14,4.14,0,0,0,.47,1.76,2.84,2.84,0,0,0,.6.8,3.28,3.28,0,0,0,.84.55,5,5,0,0,0,3.49.18,9.17,9.17,0,0,0,2.88-1.54,18.17,18.17,0,0,0,4.07-4.66,40.91,40.91,0,0,0,2.86-5.34l-1.3-.11a24.83,24.83,0,0,0,1.87,4.2,21.57,21.57,0,0,0,2.59,3.75,15.74,15.74,0,0,0,3.46,3,12,12,0,0,0,4.19,1.63,13.47,13.47,0,0,1-3.91-2,16.09,16.09,0,0,1-3.06-3.11,21.77,21.77,0,0,1-2.27-3.72,23.07,23.07,0,0,1-1.53-4l-.46-1.72L442,226.7a44.13,44.13,0,0,1-2.91,5.05,17.77,17.77,0,0,1-3.76,4.22c-1.42,1.08-3.28,1.81-4.67,1.16-1.27-.46-1.11-2.63-.74-4.45a55.64,55.64,0,0,1,1.5-5.66c.57-1.89,1.17-3.77,1.87-5.61C434.75,217.77,436.21,214,438.74,211Z" style="fill:#263238"></path><path d="M550.37,242.35C539.8,261.79,523.1,292,512.44,299.17c-11.84,7.95-48-15.32-71.23-29.16-4.63-2.75,14.5-40,19.3-36.82,12.51,8.34,38.5,27.85,41.78,27,2.68-.71,20.35-17.27,32.81-27.11C554.94,217.41,557.81,228.67,550.37,242.35Z" style="fill:#d3766a"></path><path d="M536.75,164.22s10.7-10.83,24.14-7.12,24,19.54,26.34,34.73,17.12,21.32,21.61,31.8-1.16,17.59-1.87,24c-.82,7.32,17,27.26-9.35,40.86-32.93,17-52.62-.52-54.3-19.32-.82-9.22,2.25-16.84.09-23.85s-8.79-11.15-8.83-20.84,3.76-9.48,1-23.91S525.09,170.25,536.75,164.22Z" style="fill:#263238"></path><path d="M558.38,157.48a45.11,45.11,0,0,1,22.36,15,41.86,41.86,0,0,1,6.71,11.84c2,5.6,2.74,11.2,6.5,16.11,6,7.88,15,13.27,17.6,23.25a25.41,25.41,0,0,1-.4,14.14c-1.7,5.35-5,10.14-6.07,15.67a.19.19,0,0,1-.37-.08c.85-4.87,3.31-9.12,5-13.76a25.91,25.91,0,0,0,.58-17.06c-3-9.32-11.88-14.56-17.54-22.2-2.56-3.46-3.76-7.19-4.83-11.29a44.44,44.44,0,0,0-6-13.6c-5.55-8.28-14-14.36-23.66-17.87C558.23,157.6,558.29,157.45,558.38,157.48Z" style="fill:#263238"></path><path d="M604.53,259.86c.05,0,.06.05,0,.06S604.49,259.87,604.53,259.86Z" style="fill:#263238"></path><path d="M542.71,266.61c-.36-4.46.71-8.91.35-13.36-.43-5.35-3.18-10-5.6-14.66-3.46-6.65-5.27-13.36-4.11-20.93.75-4.89,2-9.64,2.18-14.6a55.29,55.29,0,0,0-1.81-16,.09.09,0,0,1,.18,0,50.35,50.35,0,0,1,1.72,23c-.74,4.53-2,9-1.84,13.56.2,5.54,2.18,10.36,4.61,15.26A61.82,61.82,0,0,1,542.76,249c1,3.65.85,7.23.56,11a37.68,37.68,0,0,0,8,26.59c.11.14-.13.33-.24.19A35.77,35.77,0,0,1,542.71,266.61Z" style="fill:#263238"></path><path d="M609.41,222.09c-2.59-7.64-9.53-11.31-14.79-17.05-4-4.34-7.24-9.26-8.07-15.09,0-.09.16-.12.18,0,2,8.21,7.52,14.54,14,20,4.3,3.63,8,7.23,9.66,12.64s.79,10.39-.93,15.67c-1.24,3.77-2.5,7.31-2.32,11.28s1.52,7.75,2.81,11.43c.06.2-.26.29-.33.1-2.22-5.64-4-11.24-2.61-17.4C608.67,236.07,612,229.86,609.41,222.09Z" style="fill:#263238"></path><path d="M539.75,261.52a49.46,49.46,0,0,1,2.23-8.81c1.68-5.22,1.13-8.9-1.37-13.78a.1.1,0,0,1,.18-.1c2.67,3.83,4.05,7.27,2.68,11.93-1.91,6.51-3.89,12.51-2.69,19.26,2.14,12,11.87,20.84,24.21,23.58.17,0,.1.29-.07.26-10.2-1.76-18.78-7.86-22.84-16.83A28.82,28.82,0,0,1,539.75,261.52Z" style="fill:#263238"></path><path d="M517.7,299.06l-9.13-45.21s15.4-12.95,30.83-25,21.74-8.19,11.79,14.18S530.15,287.89,517.7,299.06Z" style="fill:#455a64"></path><path d="M551.18,243c-9.95,22.37-21,44.92-33.48,56.08L511.21,267l39.61-44.68C557.17,220.85,558.09,227.47,551.18,243Z" style="fill:#37474f"></path><path d="M533.42,248.29c1.37-.87,3,1.14,3,1.19s-.8-2.78,1-3.32c1.26-.41,2.36,1.38,2.28,3.11a7.43,7.43,0,0,1-1.66,3.67c0-.18-2.45.4-4-.92C532.69,250.74,532.47,248.74,533.42,248.29Zm-12.86,19.33c1.58,1.32,4,.73,4,.91a7.31,7.31,0,0,0,1.65-3.67c.09-1.73-1-3.51-2.27-3.11-1.8.55-1,3.34-1,3.33s-1.62-2.07-3-1.2C519,264.34,519.24,266.33,520.56,267.62Zm14.84,7.45c-.73.06-1.2,1-1.16,2.14.41-.71.82-1.42,1.23-2.15Zm-17.06-29.33c.64.26,1.13.37,1.1.45a7.4,7.4,0,0,0,2.86-2.84,4.25,4.25,0,0,0,.3-1.08Zm-2.77,33.57a1.65,1.65,0,0,0-1.77.43l.84,4.16a4.1,4.1,0,0,0,.82-.74C516.59,281.85,516.81,279.76,515.57,279.31Zm29.62-46.77c.44,2,2.74,3.05,2.63,3.19a7.4,7.4,0,0,0,3.55-1.88c1.13-1.32,1.35-3.41.11-3.86-1.76-.67-2.83,2-2.82,2s0-2.63-1.64-2.78C546,229,544.94,230.71,545.19,232.54Z" style="fill:#263238"></path><path d="M513,253.86a38.28,38.28,0,0,1,1.26,4.61c.4,1.54.82,3.08,1.2,4.62.73,3,1.37,6,2,9a178.33,178.33,0,0,1,3,18.23c0,.13-.19.16-.22,0-1.37-6.09-2.44-12.25-3.67-18.37-.6-3-1.22-6-1.83-9-.31-1.51-.58-3-.89-4.52a44.52,44.52,0,0,1-.92-4.54C512.82,253.79,512.94,253.79,513,253.86Z" style="fill:#263238"></path><path d="M610.58,312.28,530,315.76l-2.1-23.41s-7.31-8.89-7.31-19.14c0-10.91,19.47-40.44,21.07-42.12,6.43-6.73,17.47-7.75,23.13-3.45C595,250.63,610.58,312.28,610.58,312.28Z" style="fill:#263238"></path><path d="M610.58,312.28,530,315.76l-2.1-23.41s-7.31-8.89-7.31-19.14c0-10.91,19.47-40.44,21.07-42.12,6.43-6.73,17.47-7.75,23.13-3.45C595,250.63,610.58,312.28,610.58,312.28Z" style="fill:#455a64"></path><path d="M533.42,248.29c1.37-.87,3,1.14,3,1.19s-.8-2.78,1-3.32c1.26-.41,2.36,1.38,2.28,3.11a7.43,7.43,0,0,1-1.66,3.67c0-.18-2.45.4-4-.92C532.69,250.74,532.47,248.74,533.42,248.29Zm41.88,16.07c1.58,1.32,4,.73,4,.91A7.36,7.36,0,0,0,581,261.6c.08-1.73-1-3.51-2.27-3.11-1.8.54-1,3.34-1,3.32s-1.62-2.06-3-1.19C573.76,261.08,574,263.07,575.3,264.36Zm-14,18.94c1.58,1.32,4,.74,4,.92a7.36,7.36,0,0,0,1.65-3.67c.09-1.73-1-3.51-2.27-3.11-1.8.54-1,3.33-1,3.32s-1.62-2.06-3-1.19C559.77,280,560,282,561.31,283.3Zm3.41,25.62c-1.69.51-1.09,3-1,3.29-.19-.26-1.69-2-3-1.16-.87.41-.77,2.1.26,3.37l5.35-.23A5.31,5.31,0,0,0,567,312C567.08,310.3,566,308.51,564.72,308.92ZM524,261.75a.27.27,0,0,0-.11.05c-.37.85-.72,1.69-1,2.5a5.66,5.66,0,0,0,.14.75l-.29-.33c-.47,1.2-.87,2.35-1.19,3.44,1.46.59,3.11.22,3.11.37a7.31,7.31,0,0,0,1.65-3.67C526.33,263.13,525.22,261.35,524,261.75Zm10.63,17c1,1.8,3.51,2.13,3.44,2.3a7.4,7.4,0,0,0,2.86-2.84c.69-1.58.3-3.64-1-3.71-1.88-.14-2.13,2.75-2.13,2.74s-.77-2.51-2.36-2.19C534.34,275.16,533.84,277.1,534.6,278.77Zm3,31.11c-1.87-.14-2.12,2.75-2.12,2.74s-.78-2.51-2.37-2.19c-1,.09-1.56,2-.79,3.7a3.93,3.93,0,0,0,1.52,1.46h0l3.29-.14a5.22,5.22,0,0,0,1.47-1.86C539.33,312,538.94,310,537.62,309.88Zm-9.42-14.19.2,2.21A3.43,3.43,0,0,0,528.2,295.69Zm46.93,2.6c1,1.8,3.5,2.13,3.44,2.3a7.42,7.42,0,0,0,2.85-2.83c.7-1.59.31-3.65-1-3.72-1.87-.14-2.12,2.75-2.12,2.74s-.78-2.5-2.37-2.19C574.87,294.68,574.36,296.62,575.13,298.29Zm29.63-4.8a1.38,1.38,0,0,0-1-.21c-1.06.09-1.57,2-.8,3.7,1,1.8,3.5,2.13,3.44,2.3a2.13,2.13,0,0,1,.3-.2C606.08,297.34,605.45,295.47,604.76,293.49Zm-43.4-48c1,1.8,3.5,2.13,3.43,2.3a7.33,7.33,0,0,0,2.86-2.84c.7-1.58.31-3.65-1-3.72-1.87-.14-2.13,2.76-2.12,2.75s-.78-2.51-2.37-2.19C561.1,241.85,560.59,243.79,561.36,245.46Zm-10.78,16.46c.45,2,2.74,3.06,2.63,3.19a7.3,7.3,0,0,0,3.55-1.88c1.13-1.32,1.35-3.4.11-3.86-1.75-.67-2.83,2-2.82,2s0-2.62-1.64-2.78C551.38,258.39,550.33,260.1,550.58,261.92Zm-5.39-29.38c.44,2,2.74,3.05,2.63,3.19a7.4,7.4,0,0,0,3.55-1.88c1.13-1.32,1.35-3.41.11-3.86-1.76-.67-2.83,2-2.82,2s0-2.63-1.64-2.78C546,229,544.94,230.71,545.19,232.54Zm41.4,48.58c.44,2,2.74,3.05,2.63,3.19a7.34,7.34,0,0,0,3.55-1.88c1.13-1.32,1.35-3.41.11-3.86-1.76-.67-2.83,2-2.83,2s0-2.63-1.63-2.78C587.39,277.59,586.34,279.3,586.59,281.12Zm-42.81,15.8c.44,2,2.73,3.06,2.62,3.2a7.37,7.37,0,0,0,3.56-1.89c1.12-1.31,1.34-3.4.1-3.85-1.75-.68-2.83,2-2.82,2s0-2.62-1.63-2.78C544.57,293.39,543.53,295.1,543.78,296.92Zm56.62,10.47c-1.76-.67-2.84,2-2.83,2s0-2.63-1.63-2.78c-1-.22-2.08,1.49-1.83,3.31a5.42,5.42,0,0,0,2.36,2.95h0l1.28-.06h0a6,6,0,0,0,2.52-1.58C601.41,309.93,601.64,307.84,600.4,307.39Z" style="fill:#263238"></path><path d="M554.67,283.84A75.89,75.89,0,0,0,542,285.69c-2.08.52-4.12,1.15-6.16,1.83-1,.34-2,.64-3.07.93a11.82,11.82,0,0,1-3.27.57c-.1,0-.1.17,0,.17a15.94,15.94,0,0,0,6.13-.45c2.11-.5,4.2-1.12,6.3-1.65,4.25-1.07,8.5-2.13,12.8-2.84C554.91,284.21,554.87,283.82,554.67,283.84Z" style="fill:#263238"></path><path d="M564.94,288.66a78.66,78.66,0,0,0-10.48-1.05c-1.76-.05-3.5,0-5.26.13-.84.06-1.68.14-2.51.22s-1.84.34-2.76.42c-.09,0-.1.18,0,.17.87,0,1.74.08,2.61.09l2.63,0c1.75,0,3.5.08,5.25.08,3.51,0,7,.08,10.5.23C565.11,289,565.11,288.69,564.94,288.66Z" style="fill:#263238"></path><path d="M579.73,238.2c14.6,16.63,37.21,42.72,40.25,55.19,3.38,13.86-38.57,49.08-59.6,66.15-4.18,3.4-32.55-27.42-27.9-30.81,12.14-8.87,47.08-35.87,47.4-39.25.26-2.76-9.18-25.06-14.12-40.15C557.9,225.3,569.46,226.5,579.73,238.2Z" style="fill:#d3766a"></path><path d="M541,323.1s-13.89,7.23-22.75,12.39c-4.94,2.88-13,8.56-15.64,12.34-4,5.64-17.05,31.8-10.77,35.1,5.68,3,8.65-6.51,8.65-6.51s-4.22,10.08,2.32,11.32S512,376.22,512,376.22s-5.23,10.4,1.88,11c6.18.56,10.84-13.8,10.84-13.8s-6.68,10.31-.42,11.51c6.93,1.33,16.64-19.33,16.64-19.33,15.53-.45,22.79-7.9,28-13.38C570.17,351,541,323.1,541,323.1Z" style="fill:#d3766a"></path><path d="M510.82,379.51c.25-1,.53-2,.78-3a51.78,51.78,0,0,1,1.73-5.73c.71-1.81,1.49-3.59,2.32-5.35s2-3.63,2.8-5.51a.11.11,0,1,1,.2.1,55,55,0,0,0-2.21,5.67q-1,2.8-2,5.63c-.65,1.83-1.41,3.61-2.11,5.43-.35.9-.65,1.82-1,2.74a16.86,16.86,0,0,1-.93,2.61c-.05.08-.16,0-.16-.06A12.55,12.55,0,0,1,510.82,379.51Z" style="fill:#263238"></path><path d="M499.6,378.53c.12-1.73,2.3-8.89,3-10.69a55.4,55.4,0,0,1,4.86-10,.11.11,0,0,1,.2.1c-1.27,3.49-2.6,7-3.92,10.44-.65,1.7-3.35,9.5-3.74,10.29C499.88,378.84,499.59,378.72,499.6,378.53Z" style="fill:#263238"></path><path d="M521.34,380.7a79.9,79.9,0,0,1,3-10,72.79,72.79,0,0,1,5.31-9.27c.08-.1.27,0,.21.1-1.53,3.21-3.11,6.38-4.48,9.66-.67,1.6-3,8.13-3.74,9.6A.15.15,0,0,1,521.34,380.7Z" style="fill:#263238"></path><path d="M621.7,288.42l-45.59-7s-6.84-18.93-12.87-37.57-.19-23.24,17.37-6.18S615.51,272.88,621.7,288.42Z" style="fill:#455a64"></path><path d="M575.3,264.36c1.58,1.32,4,.73,4,.91A7.36,7.36,0,0,0,581,261.6c.08-1.73-1-3.51-2.27-3.11-1.8.54-1,3.34-1,3.32s-1.62-2.06-3-1.19C573.76,261.08,574,263.07,575.3,264.36Z" style="fill:#263238"></path><path d="M567.65,244.92a7.33,7.33,0,0,1-2.86,2.84s-.11-.09-.32-.16l-1.23-3.77c-.23-.72-.45-1.41-.64-2.09,1.28.17,1.92,2.11,1.92,2.21s.25-2.89,2.12-2.75C568,241.27,568.35,243.34,567.65,244.92Z" style="fill:#263238"></path><path d="M604.62,262.67a7.72,7.72,0,0,1-2.74,2.6c.07-.16-2.43-.5-3.44-2.3-.77-1.67-.26-3.61.8-3.7,1.59-.31,2.38,2.15,2.36,2.19a5,5,0,0,1,.49-1.69C603,260.74,603.8,261.71,604.62,262.67Z" style="fill:#263238"></path><path d="M618.47,281.76a12.21,12.21,0,0,1-1.68,1.24c.07-.17-2.43-.5-3.44-2.3-.76-1.67-.26-3.61.8-3.7,1.59-.32,2.38,2.14,2.36,2.19a4.44,4.44,0,0,1,.1-.57C617.27,279.67,617.89,280.72,618.47,281.76Z" style="fill:#263238"></path><path d="M592.77,282.43a5,5,0,0,1-1.76,1.26l-3.12-.48a4.12,4.12,0,0,1-1.3-2.09c-.25-1.82.8-3.53,1.83-3.31,1.61.15,1.66,2.74,1.63,2.78s1.07-2.69,2.83-2C594.12,279,593.9,281.11,592.77,282.43Z" style="fill:#263238"></path><path d="M588.84,245.77c-.49.17-.84.24-.86.26.11-.14-2.18-1.18-2.63-3.19a4,4,0,0,1,0-.59Q587.1,244,588.84,245.77Z" style="fill:#263238"></path><path d="M577.64,277.27a40,40,0,0,1,4.76.41c1.58.16,3.17.29,4.75.47,3.05.35,6.09.77,9.12,1.24a179.62,179.62,0,0,1,18.13,3.52c.13,0,.08.23,0,.22-6.2-.82-12.35-1.94-18.52-2.9l-9.1-1.39c-1.52-.23-3-.5-4.56-.73a46.18,46.18,0,0,1-4.57-.69C577.52,277.39,577.56,277.27,577.64,277.27Z" style="fill:#263238"></path><path d="M578.64,281.79q-1.29-.1-2.55-.24H576l0-.09c-1-2.45-1.85-4.93-2.77-7.4l-2.62-7.45c-.85-2.49-1.71-5-2.52-7.49l-2.45-7.51c1.16,2.37,2.17,4.81,3.14,7.27s1.88,4.92,2.76,7.4,1.71,5,2.51,7.5,1.56,5,2.25,7.58l-.13-.1C577,281.42,577.8,281.59,578.64,281.79Z" style="fill:#263238"></path><path d="M565.69,257.25a8.06,8.06,0,0,1,2.19,2,7.88,7.88,0,0,1,1.39,2.61,7.59,7.59,0,0,1-2.18-2A7.91,7.91,0,0,1,565.69,257.25Z" style="fill:#263238"></path><path d="M561.77,229.08c-.54,1.62-9.39,11.61-16.89,10.57-2.45-.35-1.17-13.77-1.17-13.77l-.13-1-1.84-14.18,17.27-9,2.48-1.17s.25,3.91.51,8.78c0,.23,0,.45,0,.7s0,.53.05.79c0,.73.09,1.47.12,2.21,0,.56.06,1.11.06,1.71s0,1.17.05,1.76A92.94,92.94,0,0,1,561.77,229.08Z" style="fill:#d3766a"></path><path d="M562,209.32a28.68,28.68,0,0,1-18.42,15.55l-1.84-14.18,17.27-9,2.48-1.17S561.74,204.45,562,209.32Z" style="fill:#263238"></path><path d="M522.7,189.11c-3.54,24.83,10.94,29.75,16.29,30.51,4.87.69,21.51,2.41,27.59-21.93s-4.34-33.82-15.38-36S526.24,164.27,522.7,189.11Z" style="fill:#d3766a"></path><path d="M528.41,182.6a17.36,17.36,0,0,0,1.76-.13A2.85,2.85,0,0,0,532,182a.91.91,0,0,0,.15-1.1,2.27,2.27,0,0,0-2.14-.82,3.33,3.33,0,0,0-2.23.88A1,1,0,0,0,528.41,182.6Z" style="fill:#263238"></path><path d="M545.36,185.42a17.55,17.55,0,0,1-1.67-.6,2.82,2.82,0,0,1-1.58-.93.89.89,0,0,1,.15-1.1,2.27,2.27,0,0,1,2.28-.23,3.28,3.28,0,0,1,1.91,1.45A1,1,0,0,1,545.36,185.42Z" style="fill:#263238"></path><path d="M540.84,191.35c0-.06.12.11.11.18-.33,1.71-.42,3.73,1,4.55,0,0,0,.12,0,.1C540.11,195.61,540.25,192.93,540.84,191.35Z" style="fill:#263238"></path><path d="M542.66,189.8c2.81.23,2.15,5.82-.45,5.61S540.31,189.6,542.66,189.8Z" style="fill:#263238"></path><path d="M543.73,190.22c.45.38.86,1,1.44,1.12s1.26-.37,1.78-.89c0,0,.09,0,.08.08-.11,1.08-.65,2.13-1.82,2.15s-1.71-1-1.85-2.13C543.34,190.35,543.55,190.07,543.73,190.22Z" style="fill:#263238"></path><path d="M530.9,189.39c0-.07-.14.07-.15.14-.13,1.74-.58,3.71-2.22,4.11,0,0,0,.1,0,.1C530.48,193.68,531.05,191.06,530.9,189.39Z" style="fill:#263238"></path><path d="M529.55,187.4c-2.76-.52-3.6,5.06-1,5.54S531.88,187.84,529.55,187.4Z" style="fill:#263238"></path><path d="M528.34,187.6c-.49.23-1,.7-1.54.65s-1-.72-1.27-1.36c0-.06-.09,0-.1.05-.19,1.06,0,2.22,1,2.58s1.73-.48,2.14-1.5C528.64,187.83,528.53,187.5,528.34,187.6Z" style="fill:#263238"></path><path d="M538.71,205.32c-.45.37-.91.91-1.54.91a4.65,4.65,0,0,1-1.84-.57c-.06,0-.12,0-.09.08a2.38,2.38,0,0,0,2.15,1.11,1.85,1.85,0,0,0,1.48-1.44C538.9,205.31,538.77,205.26,538.71,205.32Z" style="fill:#263238"></path><path d="M532.33,197.49s-.77,2.93-.93,4.15c0,.12,4.2.88,6.72-1.53.11-.1,0-.25-.16-.19a8.8,8.8,0,0,1-5.47,1c0-.35,1.31-4.44,1.12-4.48a10.79,10.79,0,0,0-2.85.27c1.29-5.33,3.43-10.42,4.64-15.74a.17.17,0,0,0-.31-.12c-2.61,5.16-4.24,11.27-5.72,16.74C529.18,198.22,531.81,197.63,532.33,197.49Z" style="fill:#263238"></path><path d="M532.45,201.43A7.1,7.1,0,0,0,535,204a3.19,3.19,0,0,0,1.92.38c1.45-.18,1.66-1.46,1.55-2.59a7.84,7.84,0,0,0-.4-1.77A9.29,9.29,0,0,1,532.45,201.43Z" style="fill:#263238"></path><path d="M535,204a3.19,3.19,0,0,0,1.92.38c1.45-.18,1.66-1.46,1.55-2.59C536.94,201.75,535.32,202.57,535,204Z" style="fill:#ff98b9"></path><path d="M564.85,196.7c-5.22-.38-4.71-12.36-4.71-12.36s-8.73-2.2-12-8.42c0,0,2.12,5.34,5.45,7.7.56.39-17.27-2.53-18.11-16.38,0,0-3.48,13.4-11.84,15.67-.4.11,2-12.28,4.78-15a26.16,26.16,0,0,1,5.41-4.1A25.77,25.77,0,0,1,553,160.09c10.91,2.29,17.4,14.32,17.95,19.12C572,188.65,567.33,196.89,564.85,196.7Z" style="fill:#263238"></path><path d="M553,183.88c-9.76-1-17.16-7.77-17.35-17.81a.22.22,0,0,0-.44,0c-2,10.06,8.55,18.17,17.87,18C553.29,184.05,553.22,183.9,553,183.88Z" style="fill:#263238"></path><path d="M564.87,196.15c-5.14-3.05-5.65-8.43-5.71-13.86,0-.16-.27-.19-.28,0-.42,5.3.15,11.86,5.77,14.31A.24.24,0,0,0,564.87,196.15Z" style="fill:#263238"></path><path d="M535.51,165.17c0-.06-.09-.06-.1,0-1.54,5.53-2.37,15-9.64,15.94a.15.15,0,0,0,0,.3C532.85,181.09,535.91,171,535.51,165.17Z" style="fill:#263238"></path><path d="M560.93,197.64s5.89-7.52,9.33-5.37-1.29,13.25-5.54,14.57a4.24,4.24,0,0,1-5.55-2.59Z" style="fill:#d3766a"></path><path d="M568.83,195.42c.07,0,.07.09,0,.11-3,1-4.67,3.65-5.9,6.4.93-1,2.14-1.56,3.54-.45.07.06,0,.17-.09.15a2.62,2.62,0,0,0-2.92.75,12.59,12.59,0,0,0-1.5,2.25c-.15.25-.62.08-.5-.21l0-.07C561.63,200.63,564.81,195.57,568.83,195.42Z" style="fill:#263238"></path></g><g id="freepik--character-3--inject-19"><path d="M533.76,452.42H466.93c-.12-.6-.24-1.2-.35-1.81-.9-4.49-1.81-9.07-2.73-13.7-.14-.72-.28-1.43-.43-2.13-.42-2.14-.85-4.28-1.27-6.42-.14-.72-.28-1.43-.43-2.14-.08-.46-.17-.9-.27-1.36l-.21-1.09c-.41-2-.81-4.1-1.22-6.14,0,0,0,0,0-.06-.08-.38-.15-.75-.22-1.13h0l-.87-4.38c-.2-1-.4-2-.59-3-1.12-5.68-2.24-11.28-3.33-16.74-.14-.68-.27-1.36-.41-2-.47-2.4-.94-4.78-1.41-7.11-.07-.3-.12-.59-.17-.88l-.78-3.89c-.13-.66-.27-1.33-.39-2-.18-.89-.35-1.76-.53-2.63-.34-1.74-.68-3.44-1-5.12-.76-3.8-1.47-7.42-2.15-10.82-.08-.36-.14-.71-.21-1.06s-.19-1-.29-1.5-.24-1.19-.36-1.77c-.49-2.47-1-4.82-1.39-7-.13-.63-.25-1.24-.37-1.84q-.45-2.25-.84-4.23-.12-.54-.21-1c-.24-1.19-.46-2.3-.66-3.32-.08-.39-.16-.78-.23-1.15-.8-4-1.29-6.48-1.4-7a.44.44,0,0,1,0-.1v0h61.65l0,.11h0v0h0l.31,1.23c.1.38.21.86.35,1.4,2.52,10.24,11.62,47.15,20.75,85.51C528.15,428.33,531.06,440.71,533.76,452.42Z" style="fill:#ffc4c0"></path><path d="M503.79,327.79l-13.22,56.37-1,4.13-.17.74-.19.78-4.12,17.56-.41,1.77-2.86,12.15-7.3,31.13h-7.61c-.12-.6-.25-1.2-.36-1.81-.9-4.49-1.81-9.07-2.73-13.7-.14-.71-.28-1.42-.43-2.13-.42-2.14-.85-4.28-1.27-6.42-.14-.71-.28-1.43-.43-2.14-.08-.46-.17-.9-.27-1.36l-.21-1.09c-.41-2-.81-4.1-1.22-6.14,0,0,0,0,0-.06-.07-.38-.14-.75-.22-1.13l-.87-4.38c-.2-1-.4-2-.59-3-1.13-5.68-2.25-11.28-3.33-16.74-.14-.68-.27-1.36-.41-2q-.72-3.62-1.41-7.11c-.07-.3-.12-.59-.17-.88-.27-1.31-.53-2.61-.78-3.89-.13-.66-.27-1.33-.39-2-.19-.88-.36-1.76-.53-2.63q-.51-2.6-1-5.12c-.76-3.8-1.47-7.42-2.15-10.82-.08-.36-.14-.71-.21-1.06s-.19-1-.3-1.49-.23-1.19-.35-1.78c-.49-2.47-1-4.82-1.39-7-.13-.63-.25-1.24-.37-1.84q-.45-2.25-.84-4.23c-.08-.35-.15-.71-.21-1-.24-1.19-.46-2.3-.66-3.32-.08-.39-.16-.78-.23-1.15-.8-4-1.29-6.48-1.4-7,0,0,0,0,0-.06a.28.28,0,0,1,0-.06Z" style="fill:#263238"></path><polygon points="525.93 416.01 456.52 424.35 442.15 327.79 503.79 327.79 525.93 416.01" style="fill:#37474f"></polygon><path d="M459.11,411c7.42-1.48,14.95-2.4,22.46-3.25s14.88-1.65,22.33-2.41c4.26-.44,8.54-.87,12.81-1.09a.2.2,0,1,1,0,.4c-7.43,1.38-15,2.25-22.46,3.24s-14.85,1.9-22.3,2.7c-4.27.46-8.53.82-12.82,1A.29.29,0,1,1,459.11,411Z" style="fill:#263238"></path><path d="M451.75,333.42q7.75,27.72,14.77,55.65c.66,2.61,1.28,5.23,1.92,7.85a77.82,77.82,0,0,1,1.73,8.1.13.13,0,0,1-.24.07c-1.75-4.49-2.8-9.34-4.06-14s-2.43-9.25-3.63-13.88c-2.38-9.26-4.76-18.52-7-27.82q-1.94-7.95-3.82-15.91A.17.17,0,0,1,451.75,333.42Z" style="fill:#263238"></path><path d="M503.85,327.73l0,.17h0c-.4,2.67-5.2,33.79-13.25,56.25-.52,1.43-1,2.82-1.58,4.18a51.7,51.7,0,0,0-6.26,2.34c-.46.2-1,.41-1.46.65-2.54,1.14-5.69,2.68-9.38,4.72l0,.68q0,.28,0,.66c-.1,2-.29,6-.55,11.65q0,.79-.09,1.65c-.16,3.49-.36,7.52-.57,12,0,.72-.08,1.46-.11,2.21-.4,8.13-.87,17.52-1.37,27.56H406.07c1-9.48,2-18.79,2.91-27.56,1.31-12.21,2.56-23.35,3.64-32.35,0,0-10.89-25.81,9.49-64.78Z" style="fill:#ffc4c0"></path><path d="M470.69,424.86H406.48l4.87-32.35s-9.75-32.83,9.31-64.78h83.19s-3.45,34.79-13.65,61l-10.45,4.63Z" style="fill:#37474f"></path><path d="M479.75,393.32c.08-.41.92-.4.84,0-3.38,19.07-8.72,28.31-9.1,29.18a.12.12,0,0,1-.24,0C471,421.61,478.22,401.24,479.75,393.32Z" style="fill:#263238"></path><path d="M492.09,387.39a136.07,136.07,0,0,0-21.27,9.91.24.24,0,0,0,.2.44c7.16-3.08,14.47-6,21.46-9.49A.47.47,0,0,0,492.09,387.39Z" style="fill:#263238"></path><path d="M494.37,338.22c0-.25-.45-.31-.45,0,.06,8.51-.49,16-1.2,23.95-.34,3.69-3.31,24.09-9.71,22.6-1.07-.25-1.62-1.3-1.78-2.92-.21-1.94.52-4.32.85-6.25.71-4.27,1.28-8.56,1.64-12.87a116.63,116.63,0,0,0-.26-24.14.21.21,0,0,0-.41,0c0,11.14-.28,22.27-1.95,33.31-.8,5.31-3.47,13.3,2.08,14.11s9.31-12.55,10-16.21C495.1,359.58,495.18,348.55,494.37,338.22Z" style="fill:#263238"></path><path d="M483.18,385.28a35.11,35.11,0,0,0-1.44,4.23,9.69,9.69,0,0,0-.59,3.48c0,.22.32.24.44.09a12.21,12.21,0,0,0,1.49-3.38c.48-1.31,1-2.61,1.45-3.93A.72.72,0,0,0,483.18,385.28Z" style="fill:#263238"></path><path d="M423.61,363.18c6-.61,12.27-.53,17.88-3.24s9.32-8.14,12.23-13.57a44.81,44.81,0,0,0,4-10.65c0-.17.3-.12.3,0a29.85,29.85,0,0,1-2.47,10,44.72,44.72,0,0,1-4.81,8.9,21.51,21.51,0,0,1-6.9,6.49,23.93,23.93,0,0,1-9.08,2.74,51.06,51.06,0,0,1-11.19-.07A.35.35,0,0,1,423.61,363.18Z" style="fill:#263238"></path><path d="M415.28,399.32c.65-2.95,1.64-6,1.81-9s-1.44-5.65-2.36-8.45c-3.55-10.86-2.11-22.75,1.76-33.32a119.39,119.39,0,0,1,8.36-17.4c.08-.15.28,0,.21.13-5.3,10.34-10,21.38-11,33.07a44.07,44.07,0,0,0,1.55,16.75c.78,2.57,2.26,5.05,2.48,7.75s-.7,5.7-1.33,8.44c-.77,3.38-3.14,13.59-4.18,17-.09.29-.61.23-.56-.09C412.48,411.15,414.59,402.45,415.28,399.32Z" style="fill:#263238"></path><path d="M410.66,416.48c7.54-.56,15.13-.55,22.69-.47s15,.18,22.45.34c4.29.09,8.58.19,12.86.49.28,0,.26.38,0,.4-7.54.46-15.13.4-22.69.46s-15,.07-22.45-.05c-4.3-.07-8.57-.23-12.85-.59A.29.29,0,1,1,410.66,416.48Z" style="fill:#263238"></path><path d="M473.66,180.28c-11,8-16.17,23.16-16.17,23.16s-11.58,14.3-10.35,23.21a15.74,15.74,0,0,0,8.25,12l-.17-4.86s2.12,6.54,12,10.58,23.88,3,31.47.52a27.3,27.3,0,0,0,11.77-7.49l-3.71,6.45s10,1.19,17.53-8.45-7-27.47-8-31,1-27.61-24.76-27.4C491.52,177.08,481.23,174.77,473.66,180.28Z" style="fill:#263238"></path><path d="M451.86,237.52c-2.63-1.78-4.53-5-5.54-8a14.75,14.75,0,0,1-.13-9.64c1.3-3.75,3.86-6.84,6.36-9.85s5.39-6,7.91-9.2c.14-.17-.12-.38-.28-.25a90,90,0,0,0-7.5,7.24,42.49,42.49,0,0,0-6.24,7.66,15.93,15.93,0,0,0-2.52,8.6,15.43,15.43,0,0,0,2.11,7.08c1.49,2.58,3.61,4.42,5.67,6.52C451.83,237.84,452,237.62,451.86,237.52Z" style="fill:#263238"></path><path d="M528.05,224.9c-1.64-9.24-8.66-16-12.27-24.43-2-4.55-3.25-9.45-6.08-13.57-.08-.12-.27,0-.2.13,2.28,3.67,3.28,7.81,4.71,11.84a64.13,64.13,0,0,0,5.85,11.5c4,6.74,8.89,14.71,6.46,22.87-1.13,3.77-4.07,7.68-8.2,8.27-.16,0-.11.29,0,.25a12.52,12.52,0,0,0,8-5.85A16,16,0,0,0,528.05,224.9Z" style="fill:#263238"></path><path d="M528.05,227.33a16.41,16.41,0,0,0-.71-9.87c-1.3-3.1-3.7-5.56-6.13-7.8-2.82-2.57-5.81-5.07-7.29-8.68-.06-.15-.28,0-.23.11,2.32,5.95,7.93,9.43,11.28,14.65,3.84,6,2.65,13.61-1.48,19.11a26.81,26.81,0,0,1-9.79,7.81c-.07,0,0,.13,0,.1C520.28,239.79,526.43,234.63,528.05,227.33Z" style="fill:#263238"></path><path d="M417.91,332.84l90.17,6.06L501.78,305s8.18-8.88,6.37-18.52c-2.54-13.52-20.46-40.75-22-42.3-6.35-6.23-17.1-7.28-22.23-2.69C433.23,268.84,417.91,332.84,417.91,332.84Z" style="fill:#60B1B6"></path><path d="M476,295.36a86,86,0,0,1,12.36,3c2,.68,3.95,1.44,5.9,2.25,1,.41,1.95.78,2.93,1.14a13.62,13.62,0,0,0,3.18.86.08.08,0,0,1,0,.15,23.07,23.07,0,0,1-3.1-.3,22.43,22.43,0,0,1-2.92-.78c-2-.67-4-1.43-6.06-2.12-4.09-1.39-8.18-2.77-12.36-3.87C475.73,295.65,475.8,295.32,476,295.36Z" style="fill:#263238"></path><path d="M465.3,298.3a91.82,91.82,0,0,1,10.49.3c1.75.15,3.47.4,5.2.7l2.46.47c.9.19,1.78.5,2.69.67a.08.08,0,0,1,0,.15c-.85-.14-1.74-.13-2.6-.22l-2.61-.27c-1.73-.17-3.47-.33-5.21-.52-3.48-.38-6.94-.73-10.43-1C465.08,298.57,465.12,298.31,465.3,298.3Z" style="fill:#263238"></path><path d="M471.46,242.44c.12,1.74,6.33,13.88,14,14.77,2.51.28,4.67-13.33,4.67-13.33l.39-1L496,229.34,481.18,216,479,214.25s-1.25,3.81-2.75,8.57l-.21.67c-.09.27-.18.52-.26.77-.23.71-.47,1.44-.69,2.16-.16.55-.33,1.09-.49,1.68s-.32,1.15-.5,1.73A94.87,94.87,0,0,0,471.46,242.44Z" style="fill:#ffc4c0"></path><path d="M476.27,222.82a29.32,29.32,0,0,0,14.28,20.09L496,229.34,481.18,216,479,214.25S477.77,218.06,476.27,222.82Z" style="fill:#263238"></path><path d="M518.9,210.24c-2.11,25.57-17.66,27.19-23.17,26.72-5-.41-22-2.48-22.53-28.12s12-32.74,23.51-32.39S521,184.68,518.9,210.24Z" style="fill:#ffc4c0"></path><path d="M515.38,205c-.59-.14-1.11-.36-1.68-.55a2.89,2.89,0,0,1-1.61-.88.89.89,0,0,1,.12-1.11,2.25,2.25,0,0,1,2.27-.29,3.33,3.33,0,0,1,1.95,1.39A1,1,0,0,1,515.38,205Z" style="fill:#263238"></path><path d="M498.24,203.69a14.57,14.57,0,0,0,1.76-.18,2.89,2.89,0,0,0,1.77-.53.9.9,0,0,0,.11-1.1,2.25,2.25,0,0,0-2.16-.76,3.3,3.3,0,0,0-2.2.95A1,1,0,0,0,498.24,203.69Z" style="fill:#263238"></path><path d="M500,224.6c.35.48.67,1.1,1.28,1.26a4.67,4.67,0,0,0,1.93-.12.06.06,0,0,1,.06.1,2.38,2.38,0,0,1-2.35.57,1.87,1.87,0,0,1-1.09-1.75C499.81,224.55,499.94,224.54,500,224.6Z" style="fill:#263238"></path><path d="M508.05,218.51s.05,3-.08,4.26c0,.11-4.3-.15-6.17-3.09-.08-.12.1-.23.2-.15a8.75,8.75,0,0,0,5.09,2.23c.13-.33-.23-4.63,0-4.62a11,11,0,0,1,2.71.94c0-5.49-.87-10.94-.78-16.4a.16.16,0,0,1,.32,0c1.32,5.64,1.46,12,1.6,17.62C510.93,220,508.51,218.77,508.05,218.51Z" style="fill:#263238"></path><path d="M507,222.31a7.21,7.21,0,0,1-3.08,1.91,3.22,3.22,0,0,1-2-.09c-1.37-.52-1.26-1.81-.89-2.89a7.73,7.73,0,0,1,.81-1.62A9.25,9.25,0,0,0,507,222.31Z" style="fill:#263238"></path><path d="M503.91,224.22a3.22,3.22,0,0,1-2-.09c-1.37-.52-1.26-1.81-.89-2.89C502.55,221.56,503.94,222.74,503.91,224.22Z" style="fill:#ff98b9"></path><path d="M514.43,209.84c.44.35.86,1,1.42,1s1.17-.5,1.63-1.09c0-.06.09,0,.09.08-.06,1.13-.53,2.28-1.63,2.41s-1.66-.91-1.84-2.06C514.07,210,514.25,209.7,514.43,209.84Z" style="fill:#263238"></path><path d="M515.11,211.3a2.67,2.67,0,0,0-.53-1.29,1.88,1.88,0,0,0-1.36-.65,1.69,1.69,0,0,0-1.38.66,3.09,3.09,0,0,0-.54,1.26,5.69,5.69,0,0,0-.08.82,3.65,3.65,0,0,0,.33,1.67,5.57,5.57,0,0,1,.09-1.23,9.14,9.14,0,0,1,.28-1.09c.26-.72.7-1.32,1.28-1.26s1.06.51,1.28,1.25a12.37,12.37,0,0,1,.39,2.36A5.4,5.4,0,0,0,515.11,211.3Z" style="fill:#263238"></path><path d="M498.61,208.69c-.53.33-1.05.91-1.67.95s-1.26-.58-1.72-1.19c-.05-.06-.1,0-.1.07-.05,1.14.36,2.31,1.58,2.51s1.93-.8,2.24-1.94C499,208.88,498.82,208.56,498.61,208.69Z" style="fill:#263238"></path><path d="M498,209.82a2.62,2.62,0,0,1,.72-1.19,1.88,1.88,0,0,1,1.45-.43,1.68,1.68,0,0,1,1.25.87,3,3,0,0,1,.34,1.33,7.52,7.52,0,0,1-.05.82,3.72,3.72,0,0,1-.58,1.6,5.22,5.22,0,0,0,.09-1.24,8,8,0,0,0-.1-1.11c-.14-.76-.49-1.41-1.07-1.45s-1.12.34-1.45,1a12.49,12.49,0,0,0-.76,2.26A5.32,5.32,0,0,1,498,209.82Z" style="fill:#263238"></path><path d="M473.74,209.47c4.09,1.11,6.71-7.41,6.71-7.41s8.43,1.63,13.52-10a19,19,0,0,1-5.64,9.31s15.17,1.26,23.81-10c0,0-3.71,5.87-6.48,7.67,0,0,6.57-.55,10.57-5,0,0,1.24,7.68,2.86,10.05,0,0,4.35-26.14-20.28-28,0,0-15.29-1.87-23,9S473.74,209.47,473.74,209.47Z" style="fill:#263238"></path><path d="M474.55,207.94s.39-11.71,4.26-18.53,11.78-13.08,24-12.73c0,0-17.87-4.76-24.89,7.73S474.55,207.94,474.55,207.94Z" style="fill:#60B1B6"></path><path d="M477.1,211.14s-4.17-8.84-8.08-7.48-1.72,13.51,2.21,15.79a4.34,4.34,0,0,0,6.12-1.32Z" style="fill:#ffc4c0"></path><path d="M469.73,207.13c-.06,0-.09.07,0,.11,2.74,1.69,3.83,4.69,4.43,7.71-.69-1.24-1.78-2-3.42-1.25-.08,0,0,.18.05.17a2.67,2.67,0,0,1,2.74,1.42,12.89,12.89,0,0,1,1,2.57c.09.29.59.23.54-.09,0,0,0-.05,0-.07C475.73,214,473.7,208.19,469.73,207.13Z" style="fill:#263238"></path><path d="M458.85,262.44c8.86,32.89,25.79,66.92,34.42,70.12,9.5,3.52,43.79,3.89,63.87-.13,5.38-1.07-1.3-43.33-7-42.09-11,2.38-38.73,4.81-42.81,4.9-3.43.08-14.72-18.56-30-36.89C465.65,244.31,454.35,245.74,458.85,262.44Z" style="fill:#f7a9a0"></path><path d="M542.93,294.29s13.31-8.24,22.27-13.22c5-2.78,14-6.78,18.6-7.14,6.89-.55,36,1.59,35.68,8.67-.33,6.41-10,4.11-10,4.11s10.83,1.52,8.55,7.78-14.64,2.08-14.64,2.08,11.62.82,8.54,7.27c-2.67,5.59-17.4,2.27-17.4,2.27s12.28-.48,10.11,5.52c-2.4,6.63-25.12,4.42-25.12,4.42-8.32,13.13-18.43,15.55-25.79,17.2C552,333.64,542.93,294.29,542.93,294.29Z" style="fill:#f7a9a0"></path><path d="M606.81,297.21c-1-.29-2-.55-3-.84a50.13,50.13,0,0,0-5.8-1.44c-1.92-.32-3.84-.56-5.78-.74s-4.13-.17-6.17-.41a.12.12,0,1,0,0,.23,51.21,51.21,0,0,1,6,1c1.95.37,3.91.76,5.86,1.15s3.82.63,5.74,1c1,.17,1.9.37,2.85.58a17,17,0,0,0,2.72.53c.09,0,.1-.12,0-.16A12.52,12.52,0,0,0,606.81,297.21Z" style="fill:#263238"></path><path d="M611.7,287.07c-1.54-.78-8.82-2.57-10.71-2.91a55.72,55.72,0,0,0-11.08-.94.12.12,0,0,0,0,.23c3.65.69,7.32,1.32,11,2,1.79.31,9.88,2,10.75,2C611.83,287.47,611.87,287.16,611.7,287.07Z" style="fill:#263238"></path><path d="M602.46,306.86a80.5,80.5,0,0,0-10.12-2.55,71.08,71.08,0,0,0-10.68-.17c-.13,0-.15.21,0,.23,3.54.32,7.08.59,10.6,1.09,1.72.24,8.5,1.6,10.16,1.69A.15.15,0,0,0,602.46,306.86Z" style="fill:#263238"></path><path d="M494.74,277.34,468.66,299.6S458,272.54,457.4,258.12s5.82-17.87,15.07-8.14S494.74,277.34,494.74,277.34Z" style="fill:#60B1B6"></path><path d="M466.9,290.73c1.26-2,12.66-13,21.71-19.62a.13.13,0,0,1,.17.2c-.9.86-19.63,18.46-21.66,19.69C467,291.1,466.81,290.86,466.9,290.73Z" style="fill:#263238"></path><path d="M483,260.05c-.06-.08-.18,0-.14.1a31.48,31.48,0,0,0,1.71,3.19l.43.72c-1.94-2.15-3.91-4.26-5.88-6.36-.09-.1-.25,0-.16.15,6.49,7.54,9.13,11.74,15.41,19.45-.7.7-1.41,1.4-2.11,2.11a.17.17,0,1,0,.23.26l2.65-2.06a.37.37,0,0,0,.08-.45c-3.32-5.61-4.5-6.67-8.84-11.56-.44-.86-.88-1.72-1.38-2.54A23.12,23.12,0,0,0,483,260.05Z" style="fill:#263238"></path><path d="M458.58,275.77a.09.09,0,0,1,.16-.07,31.64,31.64,0,0,1,1.73,3.19c.13.24.24.5.36.75-.73-2.8-1.42-5.61-2.09-8.4a.11.11,0,0,1,.21-.06c2.75,9.56,6.65,19,9.66,28.48,0,0,1.46-1.31,2.45-2.11.18-.15.3.26.15.43-.86.94-1.7,2.13-2.76,2.49a.39.39,0,0,1-.43-.17,105.4,105.4,0,0,1-6.65-18.66c-.47-.85-.95-1.69-1.37-2.55A22.55,22.55,0,0,1,458.58,275.77Z" style="fill:#263238"></path></g><g id="freepik--character-2--inject-19"><path d="M325.23,310.23s-.08.32-.24.92c0,.1-.06.22-.09.35a.43.43,0,0,0,0,.11c0,.1-.06.2-.09.32-.09.33-.19.72-.3,1.14-.06.21-.12.45-.18.69-.53,2-1.28,4.9-2.2,8.45-.11.42-.21.84-.33,1.28a2.29,2.29,0,0,0-.08.28c-.72,2.8-1.55,6-2.45,9.43-.2.72-.39,1.45-.58,2.2-.77,3-1.6,6.17-2.47,9.53-.06.2-.12.4-.17.61-1.58,6.13-3.31,12.81-5.14,19.84-5.37,20.72-11.53,44.53-17.12,66.31-.2.74-.38,1.47-.57,2.21-.08.26-.15.53-.21.8-.16.64-.33,1.28-.48,1.91-.1.35-.18.71-.28,1.07-.15.56-.29,1.12-.44,1.68h0c-.58,2.25-1.14,4.47-1.7,6.66h0c-.12.48-.24,1-.37,1.43h0q-.64,2.53-1.28,5H218.81c7.6-27.08,17.67-60.56,26.15-88.23,9.33-30.55,16.73-54,16.73-54Z" style="fill:#37474f"></path><path d="M313.68,318.85l-21.86,82.73-2.7,10.26c-.15.57-.31,1.15-.45,1.73-.4,1.48-.78,3-1.18,4.44-.5,1.92-1,3.85-1.52,5.76q-3.78,14.36-7.51,28.71h-1.54q1.29-5,2.6-9.91,2.91-11,5.87-22c.57-2.16,1.15-4.3,1.74-6.46.37-1.39.75-2.76,1.11-4.14.14-.5.27-1,.41-1.48.66-2.4,1.32-4.81,2-7.21L302,360Z" style="fill:#263238"></path><path d="M263.22,310.23c4.41,34.13,20.37,90.83,26.5,137.25,14.33-56.25,35.52-137.25,35.52-137.25Z" style="fill:#263238"></path><path d="M361.48,452.48H290.69l-.6-6.44h0l-2.6-28-.36-3.93-3.45-37.19-.13-1.37c-3.81-1.76-6.62-3.07-8.29-3.86l-1.75-.82a4,4,0,0,1-.13-.56c-.8-3.74-4.21-24.08-6.86-40.06v0c-1.65-9.91-3-18.15-3.26-19.7,0-.11,0-.17,0-.22v0h82.22Z" style="fill:#37474f"></path><path d="M270.38,369a140.6,140.6,0,0,1,21.54,11.28.25.25,0,0,1-.23.45c-7.27-3.53-14.69-6.93-21.75-10.86A.49.49,0,0,1,270.38,369Z" style="fill:#263238"></path><path d="M273.15,335.38c1.19,7,1.84,14.17,2.64,21.25.19,1.7.39,3.39.57,5.09a9.9,9.9,0,0,0,1.22,4.47c1.53,2.37,4.27,3.48,6.75,4.56.28.13.17.58-.15.48-2.52-.79-5.3-1.82-7.16-3.79-2.26-2.39-2.19-6-2.54-9.08a198,198,0,0,1-1.65-22.94C272.83,335.24,273.12,335.2,273.15,335.38Z" style="fill:#263238"></path><path d="M281.7,337.54c.24,5.06.81,10.12,1.23,15.17q.31,3.74.54,7.49c.15,2.53.45,5.14.37,7.68,0,.17-.28.21-.31,0-.42-2.4-.47-4.9-.67-7.33s-.39-5.13-.53-7.69c-.29-5.11-.42-10.26-.88-15.36C281.43,337.37,281.69,337.38,281.7,337.54Z" style="fill:#263238"></path><polygon points="294.65 452.48 293.4 452.48 293.33 451.96 291.79 439.37 291.79 439.36 289.13 417.51 288.67 413.56 288.24 409.94 285.09 383.05 288.65 408.46 289.12 411.84 289.91 417.42 292.5 436.59 292.51 436.61 294.56 451.79 294.65 452.48" style="fill:#263238"></polygon><path d="M289.67,242.85c-7.76,23.51-25.89,60.87-36.64,70.39-8.87,7.87-45.24,9.88-76.81,9.16-6-.13,1.64-48.89,8-47.65,16.65,3.27,46.43-.8,49.87-2.41,2.81-1.32,23.91-24.69,35.67-38C288.43,213.1,295.13,226.29,289.67,242.85Z" style="fill:#ad6359"></path><path d="M193.58,322c-8.77,2-40.41-.83-46.49-2.34s-23.27-7.09-22.6-11.86,5.84-3.54,5.84-3.54-7.59-3.74-5.76-8.26c1.46-3.6,8.81-2.25,8.81-2.25s-8.1-4.53-5.71-8.78c2.17-3.87,9.73-.41,9.73-.41s-6.39-4.48-3.58-7.81c3.38-4,14.45,3.74,21.29,4.9,1.56.26,38.92-4.74,38.92-4.74Z" style="fill:#ad6359"></path><path d="M137.35,284.15c8.89,5,12.71,6.74,22.48,7.18.19,0,.22.29,0,.3-9.61.45-14.3-1.35-22.8-7.1C136.64,284.25,136.94,283.92,137.35,284.15Z" style="fill:#263238"></path><path d="M133.46,293.69c9,5.16,13.87,6.12,24.07,7.33.14,0,.13.26,0,.25-10.1-.35-16-1-24.28-7.33C132.85,293.65,133.05,293.46,133.46,293.69Z" style="fill:#263238"></path><path d="M130.84,304.32c9.06,4.36,14.41,5.91,24.46,5.82a.19.19,0,0,1,0,.37c-10.25,1.09-16.93-.8-24.59-5.9C130.22,304.26,130.27,304,130.84,304.32Z" style="fill:#263238"></path><path d="M194,276.91s-11.54-2.44-16.95-3.86-20.16-7.58-24-4.64c-4.29,3.29,6.73,12.78,16.37,15.4,0,0,.48,16.4,9.62,19.35,2,.64,12.66-.29,14.33-2Z" style="fill:#ad6359"></path><path d="M170.37,284.42c0,6.39,2.36,14.47,7.73,17.89a.15.15,0,0,1-.14.26c-6.26-2.89-9.12-12.21-8.74-17.91C169.3,283.56,170.38,282.77,170.37,284.42Z" style="fill:#263238"></path><path d="M246.26,256.43,279,279.81s12.53-27.22,14.41-43.37c1.34-11.44-1.41-22.72-21.8-5.35S246.26,256.43,246.26,256.43Z" style="fill:#c7c7c7"></path><path d="M293.39,236.44C291.51,252.59,279,279.81,279,279.81L258.21,265c9.88-13,26-34.08,32.4-42C293.7,225,294.06,230.7,293.39,236.44Z" style="fill:#a6a6a6"></path><path d="M279.36,270.85a59.38,59.38,0,0,0-6.15-4.8c-2.09-1.53-4.22-3-6.34-4.52s-4.29-3-6.47-4.44-4.54-2.84-6.81-4.26c-.13-.08-.29.12-.16.22,2,1.59,4.06,3.24,6.16,4.79s4.22,3,6.34,4.5,4.29,3,6.47,4.44a64.12,64.12,0,0,0,6.82,4.25C279.34,271.09,279.46,270.94,279.36,270.85Z" style="fill:#263238"></path><path d="M247.09,346.87c1.51,1.91,109.15,9.7,109.75,9.08,1.61-1.68-18.71-111.12-38.56-134.46-5.88-6.91-25.94-4.63-28.28-2.91-6.2,4.53-11.87,13.5-16.66,25.14C263.76,267,245.79,345.19,247.09,346.87Z" style="fill:#c7c7c7"></path><path d="M325,236.51c24.76.29,65.67-5.32,78.48-11.81,14.23-7.23,11.25-55.22,10.44-85.52-.16-6-47-7.7-46.51-1.27,1.31,16.78,6.17,52.83,3.53,55.56-2.15,2.23-31.11,14.6-47.53,21.4C297.27,225.69,307.57,236.3,325,236.51Z" style="fill:#ad6359"></path><path d="M413.8,106.86c2.95,9.6,1.31,31.59-1.13,36.74s-39.91,3.6-43.29-1.17-10.82-37.85-7.05-47.38S410.75,96.92,413.8,106.86Z" style="fill:#ad6359"></path><path d="M359.47,110.87c4,3.54,5.88-3.16,5.88-3.16s-.42,10.31,5.09,12.38c5.31,2,7.32-6.2,7.47-6.79,0,.55-.15,10,5.6,11.55,6,1.56,6.58-7,6.62-7.55.15.52,2.19,7.36,6.81,7.52,7.95.26,3.22-17.39,6.66-22.83,0,0,9.89,4.79,10.2,4.87,0,0-4.16-16.89-11.76-21.13a5.55,5.55,0,0,0-6.87,1.06s-.75-5.6-5.23-6.93c-2.31-.68-5.44,2.41-5.44,2.41s-.78-4.46-4.84-5.39c-3.25-.76-5.89,2.45-5.89,2.45s-2.73-3.93-6.29-3.62C360.29,76.3,351,103.28,359.47,110.87Z" style="fill:#ad6359"></path><path d="M373.28,79.78c0-.09-.08-.16-.13-.08-5.23,8.13-8.48,18.65-7.94,28.36,0,.32.54.43.59.07C367.16,98,369.17,89.16,373.28,79.78Z" style="fill:#263238"></path><path d="M384.49,82.12c.05-.11-.12-.18-.19-.08-5.34,8.4-8.67,20.36-6.74,31.47.07.38.51.66.47.21C377.3,106.24,380.75,90.55,384.49,82.12Z" style="fill:#263238"></path><path d="M390.53,118c-1.44-10.73.7-20.84,4.39-30.91.05-.13-.14-.19-.21-.09-3.15,4.44-4.83,11.1-5.7,16.39a28.52,28.52,0,0,0,1.15,14.66C390.23,118.26,390.56,118.25,390.53,118Z" style="fill:#263238"></path><path d="M365.35,107.71a32.06,32.06,0,0,0,.85,5.88,10.77,10.77,0,0,0,2.52,5.1,3.61,3.61,0,0,0,2.34,1.07,5.31,5.31,0,0,0,2.58-.55,6.4,6.4,0,0,0,2.95-4.26l1-4.25.55,4.33a17.78,17.78,0,0,0,1.6,5.56,6.38,6.38,0,0,0,3.78,3.6,3.64,3.64,0,0,0,4.31-1.57,11.09,11.09,0,0,0,1.46-5.33l.24-5.16,1.45,4.94a17.06,17.06,0,0,0,1.72,3.92,6.94,6.94,0,0,0,2.84,2.8,3.3,3.3,0,0,0,3.44-.4,7.3,7.3,0,0,0,1.84-3.62,57.61,57.61,0,0,0,1.11-8.89c.12-1.51.24-3,.43-4.53A10.82,10.82,0,0,1,403.6,102a11.75,11.75,0,0,0-.84,4.4c-.08,1.5-.08,3-.09,4.52a48.72,48.72,0,0,1-.65,9.14,8.52,8.52,0,0,1-2.08,4.42,4.65,4.65,0,0,1-5.05.77,8.51,8.51,0,0,1-3.62-3.37,18.49,18.49,0,0,1-2-4.34l1.69-.23a12.58,12.58,0,0,1-1.66,6.32,5.29,5.29,0,0,1-2.78,2.25,6,6,0,0,1-3.53,0,8.06,8.06,0,0,1-4.78-4.57,19.26,19.26,0,0,1-1.67-6.13l1.54.08a7.58,7.58,0,0,1-3.92,5.07,6.34,6.34,0,0,1-3.23.52,4.6,4.6,0,0,1-2.92-1.49,11.1,11.1,0,0,1-2.36-5.66A26.78,26.78,0,0,1,365.35,107.71Z" style="fill:#263238"></path><path d="M367.12,137s-27.54-32.51-9.56-37c5.35-1.35,28.89-.51,28.82,4.22-.1,6.11-10,7.6-16.36,7.54,0,0,10.92,9.74,6.41,19.37C373.6,137.14,367.12,137,367.12,137Z" style="fill:#ad6359"></path><path d="M356.09,100.45A22.17,22.17,0,0,1,362.43,99a47.26,47.26,0,0,1,6.52-.21,74.36,74.36,0,0,1,13,1.4,12.24,12.24,0,0,1,3.26,1.15,4.55,4.55,0,0,1,1.51,1.28,3.09,3.09,0,0,1,.65,2,5.53,5.53,0,0,1-1.43,3.52,10.37,10.37,0,0,1-2.86,2.12,19.87,19.87,0,0,1-6.47,1.83,45.47,45.47,0,0,1-6.58.33l.49-1.33a26,26,0,0,1,3.27,3.79,24.36,24.36,0,0,1,2.47,4.29,16.63,16.63,0,0,1,1.3,4.78,12.68,12.68,0,0,1-.35,4.87,14.24,14.24,0,0,0-.17-4.79,17.63,17.63,0,0,0-1.64-4.45,23.06,23.06,0,0,0-2.59-4,26.27,26.27,0,0,0-3.27-3.39l-1.48-1.24,2-.08a47.39,47.39,0,0,0,6.32-.52,18.7,18.7,0,0,0,5.89-1.74c1.73-.89,3.31-2.37,3.32-4,.14-1.46-2.07-2.31-4-2.8a63.66,63.66,0,0,0-6.27-1.16c-2.12-.31-4.24-.59-6.38-.77C364.63,99.69,360.29,99.39,356.09,100.45Z" style="fill:#263238"></path><path d="M349.34,201.2l8.74,39.26s-29.95.89-45.55-3.68c-11-3.24-20.36-10.17,3.59-22.16S349.34,201.2,349.34,201.2Z" style="fill:#c7c7c7"></path><path d="M349.68,237.3a63,63,0,0,1-2-7.54c-.59-2.52-1.13-5.06-1.67-7.59s-1.09-5.12-1.57-7.69-.84-5.3-1.26-7.94c0-.15.23-.22.27-.06.66,2.51,1.4,5,2,7.54s1.13,5.06,1.67,7.6,1.08,5.12,1.56,7.69a66.23,66.23,0,0,1,1.25,7.94A.12.12,0,0,1,349.68,237.3Z" style="fill:#263238"></path><path d="M332.81,239.61a19,19,0,0,1-4.57.61,43.9,43.9,0,0,1-4.59-.12,48.86,48.86,0,0,1-9-1.5c3.07,0,6.1.29,9.12.5l4.53.34C329.77,239.52,331.28,239.66,332.81,239.61Z" style="fill:#263238"></path><path d="M318.22,240.8a12.76,12.76,0,0,1,2.57-1,14,14,0,0,1,2.71-.46,7,7,0,0,1-2.52,1.19A7.5,7.5,0,0,1,318.22,240.8Z" style="fill:#263238"></path><path d="M306.6,248.29l-4.49-.25a16.1,16.1,0,0,0-8.65-4.27l-.2,3.79-3.08-.17.21-3.79a16.09,16.09,0,0,0-9.06,3.31l-4.5-.25a19,19,0,0,1,29.77,1.63Z" style="fill:#263238"></path><path d="M276.83,246.66l4.5.25a18.31,18.31,0,0,0-5.57,6.94l-3.3-.18A22.25,22.25,0,0,1,276.83,246.66Z" style="fill:#37474f"></path><rect x="287.91" y="249.55" width="7.23" height="3.08" transform="translate(24.94 528.51) rotate(-86.88)" style="fill:#37474f"></rect><path d="M310.19,255.73l-3.31-.18a18.26,18.26,0,0,0-4.77-7.51l4.49.25A22.06,22.06,0,0,1,310.19,255.73Z" style="fill:#37474f"></path><path d="M272.46,253.67l3.3.18A19.6,19.6,0,0,0,274,261l-3.07-.17A23,23,0,0,1,272.46,253.67Z" style="fill:#455a64"></path><rect x="287.52" y="256.77" width="7.23" height="3.08" transform="translate(17.36 534.94) rotate(-86.88)" style="fill:#455a64"></rect><path d="M311,263l-3.07-.16a19.5,19.5,0,0,0-1-7.29l3.31.18A23.24,23.24,0,0,1,311,263Z" style="fill:#455a64"></path><path d="M274,261a19.74,19.74,0,0,0,.95,7.25l-3.29-.18a23.38,23.38,0,0,1-.73-7.24v-.05L274,261Z" style="fill:#60B1B6"></path><polygon points="297.94 269.54 293.63 269.31 292.17 267.51 292.07 269.22 289 269.05 289.1 267.34 287.44 268.97 283.13 268.73 289.35 262.61 289.4 261.83 292.47 262 292.43 262.78 297.94 269.54" style="fill:#60B1B6"></polygon><path d="M311,263v.05a23.41,23.41,0,0,1-1.52,7.12l-3.29-.18a19.61,19.61,0,0,0,1.73-7.11v0Z" style="fill:#60B1B6"></path><path d="M287.44,269l-7,6.86-5.28-.29a22.19,22.19,0,0,1-3.54-7.43l3.29.18a18.47,18.47,0,0,0,3,5.57l5.21-5.13Z" style="fill:#dbdbdb"></path><rect x="286.73" y="271.21" width="7.23" height="3.08" transform="translate(2.2 547.82) rotate(-86.88)" style="fill:#dbdbdb"></rect><path d="M309.43,270.17a22.1,22.1,0,0,1-4.33,7l-5.28-.28-6.19-7.58,4.31.23,4.63,5.67a18.46,18.46,0,0,0,3.57-5.22Z" style="fill:#dbdbdb"></path><path d="M305.1,277.17a19.46,19.46,0,0,1-13.74,6.49l-3.22-.17a19.49,19.49,0,0,1-13-7.95l5.28.29-.37.37a16.06,16.06,0,0,0,8.31,4l.21-3.88,3.07.16-.21,3.88a16,16,0,0,0,8.68-3l-.33-.4Z" style="fill:#ebebeb"></path><path d="M289.62,233c5.37,3.11,16.24-4.06,20.63-11.07.3-.49.72-20.22.95-24.2.06-.81-25.3,4.61-25.3,4.61s2,8.48,1.51,15.41a9.1,9.1,0,0,1-.26,1.63c0,.07,0,.16-.06.26C286.41,222.7,286.87,231.39,289.62,233Z" style="fill:#ad6359"></path><path d="M287.09,219.63a16.44,16.44,0,0,0,2.56.28c13.11.48,18.74-15.27,20.6-22.23-4.62.42-24.36,4.63-24.36,4.63s2,8.48,1.52,15.43a8.74,8.74,0,0,1-.26,1.61C287.14,219.42,287.1,219.52,287.09,219.63Z" style="fill:#263238"></path><path d="M315.27,166.89c2.81,8.83-1.56,34.49-7.79,40.27-9,8.39-24,9.36-31.16-1.54-6.94-10.56-.65-43.9,6.32-49.17C292.92,148.68,311.11,153.85,315.27,166.89Z" style="fill:#ad6359"></path><path d="M291.34,182.24c0-.06.12.11.1.18-.34,1.72-.44,3.75,1,4.58,0,0,0,.11,0,.09C290.58,186.51,290.74,183.82,291.34,182.24Z" style="fill:#263238"></path><path d="M293.18,180.69c2.81.25,2.11,5.87-.5,5.64S290.82,180.48,293.18,180.69Z" style="fill:#263238"></path><path d="M281.42,180.53c0-.07-.15.06-.15.14-.17,1.74-.65,3.71-2.29,4.1-.06,0-.06.1,0,.09C280.93,184.84,281.54,182.21,281.42,180.53Z" style="fill:#263238"></path><path d="M280.09,178.52c-2.77-.57-3.69,5-1.12,5.54S282.42,179,280.09,178.52Z" style="fill:#263238"></path><path d="M295.2,177.53c-.79-.13-1.49-.37-2.25-.57a3.78,3.78,0,0,1-2.19-1,1.2,1.2,0,0,1,.05-1.46,3,3,0,0,1,2.95-.59,4.37,4.37,0,0,1,2.68,1.65A1.28,1.28,0,0,1,295.2,177.53Z" style="fill:#263238"></path><path d="M277.62,175.15a22.49,22.49,0,0,0,2.32.09,3.74,3.74,0,0,0,2.38-.37,1.19,1.19,0,0,0,.36-1.42,3,3,0,0,0-2.67-1.38,4.37,4.37,0,0,0-3,.83A1.28,1.28,0,0,0,277.62,175.15Z" style="fill:#263238"></path><path d="M291,198.22c-.46.35-1,.86-1.59.84a4.64,4.64,0,0,1-1.81-.68c-.05,0-.12,0-.09.08a2.37,2.37,0,0,0,2.09,1.23,1.86,1.86,0,0,0,1.56-1.37C291.24,198.22,291.11,198.17,291,198.22Z" style="fill:#263238"></path><path d="M289.87,192.78a5.94,5.94,0,0,1-4.28,2.14,7.45,7.45,0,0,1-2.15-.17,1.67,1.67,0,0,1-.4-.1l-.37-.1a.44.44,0,0,1-.3-.44h0a1,1,0,0,1,0-.17v0l0-.15c.13-1.34.52-3.36.52-3.36-.52.18-3.16,1-3,.29,1.07-5.74,2.27-12.14,4.55-17.63a.16.16,0,0,1,.31.08c-.81,5.57-2.6,11-3.5,16.53a10.58,10.58,0,0,1,2.9-.5c.18.08-.82,3.9-.83,4.5a.32.32,0,0,0,0,.07c2.21.57,4,.1,6.37-1.13C289.87,192.52,290,192.66,289.87,192.78Z" style="fill:#263238"></path><path d="M284.33,194.39a7,7,0,0,0,2.65,2.42,3.19,3.19,0,0,0,1.92.27c1.43-.25,1.56-1.53,1.39-2.65a7.36,7.36,0,0,0-.49-1.72A9.18,9.18,0,0,1,284.33,194.39Z" style="fill:#263238"></path><path d="M287,196.81a3.19,3.19,0,0,0,1.92.27c1.43-.25,1.56-1.53,1.39-2.65C288.79,194.47,287.22,195.36,287,196.81Z" style="fill:#ff98b9"></path><path d="M311.75,186.78c-3.84-.26-3.77-9.08-3.77-9.08s-9.78,1.94-8.92-10.89c0,0-11.52,2.82-18.18-1.5-5.68-3.69-8-14.05-3.19-19.69,2.74-3.19,9.88-5.73,19.42,5.07,0,0,14.16-8.17,17.87,8.42,0,0,6.88,1.4,7.17,8.22C322.6,178.09,315.06,187,311.75,186.78Z" style="fill:#263238"></path><path d="M299.14,165.91a.11.11,0,0,1,.2.07c-.85,3.07-1.73,6.42.53,9.13a7.52,7.52,0,0,0,8.85,2.29c.19-.08.33.2.14.28a8.18,8.18,0,0,1-8.92-1.7C297.1,173.2,297.62,169.22,299.14,165.91Z" style="fill:#263238"></path><path d="M311.62,184.77c5.5-2.29,9.87-6.43,10.81-12.57a12,12,0,0,0-1.47-8.5c-1.52-2.27-4-3.26-6.13-4.75a.06.06,0,0,1,.06-.11c13.72,4.67,9.33,23.22-3,26.61A.36.36,0,0,1,311.62,184.77Z" style="fill:#263238"></path><path d="M275.92,145.59c6.52-7.83,17.63-1.3,21.54,5.77,0,0,0,0,0,0-3.63-5.37-11.63-11-18.12-7.51-7.85,4.21-5.86,18,2.64,20,.26.06.17.5-.09.46C274,163.06,271.07,151.41,275.92,145.59Z" style="fill:#263238"></path><path d="M314.05,191.64c-1.56,6.9-3.9,13-6.57,15.52-9,8.39-24,9.37-31.15-1.54-2.4-3.64-3.22-10-3-17,2.5,6.08,8.61,1.75,8.61,1.75l3.07.12c8.7,6.16,15.35,4.7,18.48,2.33,2.46-1.86,6.21-7.75,6.21-7.75Z" style="fill:#263238;opacity:0.30000000000000004"></path><path d="M308.31,186.61s5.85-8.24,9.59-6.14-.71,14.06-5.13,15.67a4.49,4.49,0,0,1-6-2.46Z" style="fill:#ad6359"></path><path d="M316.54,183.87a.06.06,0,0,1,0,.11c-3.1,1.23-4.75,4.09-5.91,7.05.93-1.14,2.18-1.75,3.71-.65.08.06,0,.19-.09.17a2.75,2.75,0,0,0-3,.94,14,14,0,0,0-1.48,2.44c-.14.28-.64.12-.53-.19l0-.07C309.2,189.72,312.31,184.23,316.54,183.87Z" style="fill:#263238"></path></g><g id="freepik--Flag--inject-19"><path d="M287.77,344.21a2.08,2.08,0,0,0,1.53-2.51L225.49,82.19a2.08,2.08,0,0,0-4,1l63.81,259.5A2.08,2.08,0,0,0,287.77,344.21Z" style="fill:#263238"></path><path d="M215.37,79.38a7.27,7.27,0,1,0,5.37-8.78A7.28,7.28,0,0,0,215.37,79.38Z" style="fill:#263238;fill-rule:evenodd"></path><path d="M51.21,175.7c55.42-5,75.93-24.74,90.91-39.11,14.75-14.16,37-35.56,85.87-32.95l-3.71-15.13-.43,0c-48.89-1.63-68.56,17.72-84.37,33.27-17,16.75-36.32,35.73-91.45,41l3.18,13" style="fill:#263238"></path><path d="M54.39,188.66c55.64-4.8,77.58-25.33,92.1-38.91,12.64-11.84,36.18-33.86,85.21-31L228,103.64c-40.42-2.1-59.84,12.3-61.19,13-16.21,8.66-32.6,30.93-54.55,42.76-12.11,6.52-32.21,13.9-61,16.28l3.18,13" style="fill:#37474f"></path><path d="M57.58,201.64c25.43-1.85,47.53-7.89,65.76-18q2-1.12,4-2.32c10-6,16.39-11.89,22.6-17.55,6.53-6,12.72-11.61,22.45-17,.8-.44,1.63-.88,2.49-1.33,17.5-9,37.93-13,60.53-11.58l-3.71-15.13c-49.53-2.69-71.9,18.52-85.21,31-13.85,13-37,34.65-92.1,38.91l3.19,13" style="fill:#455a64"></path><path d="M60.76,214.6c56.11-4.3,79.86-25.41,92.62-36.76C163.3,169,189.65,145.6,239.12,149l-3.71-15.12c-22.6-1.45-43,2.55-60.53,11.58-.86.45-1.69.89-2.49,1.33-9.73,5.38-15.92,11-22.45,17-6.21,5.66-12.63,11.52-22.6,17.55q-2,1.2-4,2.32c-18.23,10.08-40.33,16.12-65.76,18l3.18,13" style="fill:#60B1B6"></path><path d="M63.94,227.57c37.43-2.68,68.68-14.69,92.89-35.67,30-26,63.31-29.43,86-27.75L239.12,149c-49.56-3.4-75.07,19.34-85.74,28.82-11.1,9.87-37.1,33-92.62,36.76l3.18,13" style="fill:#dbdbdb"></path><path d="M67.12,240.54C104.74,238,127.89,230.2,160.27,206c21.88-16.39,48.1-30.67,86-26.69l.27,0-3.71-15.13c-23.44-2-56.55,2.21-86,27.74C126.17,218.47,89.39,226,63.94,227.57l3.18,13" style="fill:#ebebeb"></path></g><g id="freepik--character-1--inject-19"><path d="M229.63,452.42h-68C159,425,156.29,394.91,154.22,372c-.06-.62-.11-1.24-.17-1.86-1.91-21.13-3.21-35.75-3.21-35.75h63.67s0,.07,0,.2C215,338.39,222.93,399.93,229.63,452.42Z" style="fill:#455a64"></path><path d="M172.33,452.42h-1.08c-3.86-29.88-6.8-59.87-9.42-89.89h0c-.13-1.49-.27-3-.39-4.46-.44-5.11-.87-10.23-1.3-15.33,0-.17.23-.17.25,0,.47,4.53.93,9,1.39,13.59.16,1.65.33,3.28.49,4.93h0c1.73,17.15,3.45,34.28,5.33,51.39Q169.78,432.57,172.33,452.42Z" style="fill:#263238"></path><path d="M205.32,334.35l-8.57,56.47-.3,1.91-.76,5.12-.06.35-.21,1.38-8,52.84H156.25c-4.54-25.58-9.48-53.49-13.42-75.76l-.21-1.17-7.28-41.14Z" style="fill:#263238"></path><path d="M214.57,334.3s0,.08,0,.25c-.5,3.29-6,38.6-15.09,61.76-.07.2-.14.38-.22.58,0,0-1.28.4-3.59,1.31-.91.36-2,.81-3.2,1.32l-1.31.6c-2.67,1.19-5.91,2.76-9.61,4.76-.36.18-.7.38-1,.57,0,0,0,.15,0,.43-.24,3.13-1.77,23.31-3.49,46.54H113.09c5.21-54.55,11.75-118.12,11.75-118.12Z" style="fill:#455a64"></path><path d="M132,344.12c-1.81,23.65-3.54,47.29-5.44,70.92q-1.52,18.68-3.15,37.38h-1c3.21-36.08,6.15-72.18,9-108.29C131.45,343.79,132,343.79,132,344.12Z" style="fill:#263238"></path><path d="M202.43,395.22a139.22,139.22,0,0,0-22,10.24.25.25,0,0,0,.2.45c7.4-3.18,15-6.22,22.17-9.8A.49.49,0,0,0,202.43,395.22Z" style="fill:#263238"></path><path d="M204.78,344.43c0-.25-.47-.31-.46,0a247,247,0,0,1-1.25,24.73c-.34,3.81-3.41,24.88-10,23.35-1.11-.26-1.67-1.35-1.84-3-.21-2,.54-4.47.87-6.46.74-4.41,1.33-8.84,1.7-13.29a120.77,120.77,0,0,0-.26-24.93.22.22,0,0,0-.43,0c0,11.52-.29,23-2,34.41-.83,5.48-3.59,13.74,2.14,14.58s9.62-13,10.33-16.74C205.54,366.5,205.62,355.11,204.78,344.43Z" style="fill:#263238"></path><path d="M193.23,393a35.71,35.71,0,0,0-1.49,4.37,9.87,9.87,0,0,0-.62,3.59.26.26,0,0,0,.46.1,12.77,12.77,0,0,0,1.54-3.5c.5-1.35,1-2.69,1.49-4.05A.74.74,0,0,0,193.23,393Z" style="fill:#263238"></path><path d="M163.31,351.33a11.91,11.91,0,0,0-.28-2.74.14.14,0,0,0-.27,0,11,11,0,0,0-.31,2.36c-.09.91-.21,1.81-.31,2.72a39.32,39.32,0,0,1-1,5.5,19.53,19.53,0,0,1-5,9.07,26.5,26.5,0,0,1-8.54,5.63c-3.55,1.5-7.29,2.06-11,3.14a.14.14,0,0,0,0,.27A31.65,31.65,0,0,0,148.54,375a25.25,25.25,0,0,0,8.9-5.69,19.85,19.85,0,0,0,5.2-9.33,28.48,28.48,0,0,0,.71-5.52A26.52,26.52,0,0,0,163.31,351.33Z" style="fill:#263238"></path><path d="M183.36,225c-6.21-4.85-24.73-9.69-33.17-5.91-10.66,4.77-25.84,40.42-22.32,43.28,6.29,5.12,34.07-12.33,40.84-20.29S183.36,225,183.36,225Z" style="fill:#60B1B6"></path><path d="M183.36,225s-7.88,9.12-14.65,17.09c-5,5.92-21.77,17.13-32.56,20.33l34.9-42.78C176.2,221.05,180.82,223,183.36,225Z" style="opacity:0.1"></path><path d="M214.46,345.58c-1.61,1.73-91,.78-91.48.13-.32-.39-6.9-7.23-4.66-15.51,7.84-28.94,30.09-91.56,51.16-106.46,5.23-3.7,22.84-2.62,25.27-1.2,5.6,3.3,10.61,9.82,14.3,21.46,5.23,16.54,11.72,60,12.32,84.37C221.62,338.35,214.87,345.14,214.46,345.58Z" style="fill:#60B1B6"></path><path d="M195,237.66c-5.78,1.89-16.66-6.27-21.27-13.24-.31-.48,0-5.82.1-12.33,0-4,0-8.35-.35-12.36-.08-.82,25.67,4,25.67,4s-1.77,8.61-1.14,15.6a9.94,9.94,0,0,0,.31,1.64,1.37,1.37,0,0,1,.06.27C199.15,224.32,200.58,235.83,195,237.66Z" style="fill:#eb9481"></path><path d="M175,199.71c1.74,6.68,7.33,22.71,20.78,21.88a14.91,14.91,0,0,0,2.57-.35,1.56,1.56,0,0,0-.06-.27,11.47,11.47,0,0,1-.32-1.63c-.62-7,1.15-15.62,1.15-15.62S180.57,200.25,175,199.71Z" style="fill:#263238"></path><path d="M168.45,168.81c-2.32,9.14,3.66,34.93,10.34,40.43,9.68,8,24.93,8.06,31.55-3.44,6.41-11.14-2-44.62-9.38-49.56C190.05,149,171.89,155.31,168.45,168.81Z" style="fill:#eb9481"></path><path d="M194.86,184.55c0-.06-.12.11-.1.19.45,1.72.68,3.78-.77,4.71,0,0,0,.11,0,.09C195.89,188.84,195.56,186.11,194.86,184.55Z" style="fill:#263238"></path><path d="M192.9,183.09c-2.85.42-1.8,6.08.84,5.69S195.28,182.73,192.9,183.09Z" style="fill:#263238"></path><path d="M204.76,182.32c0-.07.15.05.16.13.27,1.76.88,3.73,2.57,4,.06,0,.07.1,0,.1C205.51,186.66,204.73,184,204.76,182.32Z" style="fill:#263238"></path><path d="M206,180.19c2.78-.74,4.06,4.88,1.48,5.56S203.65,180.81,206,180.19Z" style="fill:#263238"></path><path d="M190.18,180.91a19.8,19.8,0,0,0,2-1.18c.78-.46,1.45-.74,1.86-1.6a1.21,1.21,0,0,0-.46-1.41,3,3,0,0,0-3,.25,4.39,4.39,0,0,0-2.16,2.35A1.3,1.3,0,0,0,190.18,180.91Z" style="fill:#263238"></path><path d="M207.64,176.94a23.19,23.19,0,0,1-2.36-.17,3.79,3.79,0,0,1-2.37-.63,1.21,1.21,0,0,1-.2-1.47,3,3,0,0,1,2.85-1.11,4.47,4.47,0,0,1,3,1.17A1.3,1.3,0,0,1,207.64,176.94Z" style="fill:#263238"></path><path d="M195.48,200.53c.49.33,1,.82,1.66.76a4.9,4.9,0,0,0,1.81-.8.06.06,0,0,1,.09.08,2.4,2.4,0,0,1-2,1.37,1.92,1.92,0,0,1-1.67-1.3C195.28,200.54,195.4,200.48,195.48,200.53Z" style="fill:#263238"></path><path d="M196.34,194.94a6.08,6.08,0,0,0,4.48,1.91,7.68,7.68,0,0,0,2.17-.3,2.34,2.34,0,0,0,.4-.12l.37-.13a.45.45,0,0,0,.28-.46h0a.53.53,0,0,0,0-.18h0l0-.16c-.21-1.35-.72-3.38-.72-3.38.54.15,3.26.82,3.09.12-1.43-5.77-3-12.2-5.68-17.64a.17.17,0,0,0-.31.11c1.16,5.6,3.3,11,4.55,16.57a11.06,11.06,0,0,0-3-.33c-.18.09,1.07,3.9,1.11,4.52a.14.14,0,0,1,0,.07c-2.21.71-4,.34-6.53-.77C196.33,194.67,196.21,194.82,196.34,194.94Z" style="fill:#263238"></path><path d="M202.06,196a7.18,7.18,0,0,1-2.42,2.72,3.22,3.22,0,0,1-1.92.48c-1.46-.11-1.74-1.38-1.69-2.53a7.63,7.63,0,0,1,.32-1.8A9.36,9.36,0,0,0,202.06,196Z" style="fill:#263238"></path><path d="M199.64,198.74a3.22,3.22,0,0,1-1.92.48c-1.46-.11-1.74-1.38-1.69-2.53A3.36,3.36,0,0,1,199.64,198.74Z" style="fill:#ff98b9"></path><path d="M170.75,189c4.63-1.48,6.49-17.21,6.49-17.21s.17,6.64,1.41,6.44,6-9.38,6.42-15.87a50.45,50.45,0,0,0,12,5.39c6,1.57,12.49,1,12.46,0-.09-3-3.07-10.73-7.22-13.36-4.78-3-11.57-5.91-21.11-1.9s-11.86,10.29-13.14,15.15S169.05,189.55,170.75,189Z" style="fill:#263238"></path><path d="M175.6,190s-6.44-8-10.11-5.66,1.56,14.24,6.15,15.6a4.56,4.56,0,0,0,5.94-2.86Z" style="fill:#eb9481"></path><path d="M167.07,187.66a.06.06,0,0,0,0,.12c3.22,1.06,5.07,3.86,6.43,6.8-1-1.1-2.32-1.65-3.81-.43-.07.06,0,.18.1.16a2.81,2.81,0,0,1,3.15.77,14.05,14.05,0,0,1,1.64,2.39c.17.27.66.09.54-.23l0-.07C174.89,193.16,171.4,187.77,167.07,187.66Z" style="fill:#263238"></path><path d="M193.38,151.34a38.15,38.15,0,0,0-10.78-2.43c-4.12-.23-12.64-.42-18.7,5.64-5,5-4.07,13.8-4,15.59s1.57,12.47,5.64,14.8,3.19-15.95,8.92-22.43S193.38,151.34,193.38,151.34Z" style="fill:#455a64"></path><path d="M193.38,151.34s-13.22,4.7-18.95,11.18-4.85,24.75-8.93,22.42c-1.79-1-2.74-2.66-3.64-5.47.45-5.39,2-13.81,6.1-19.85,3.8-5.65,10.78-8.86,18.38-10.25A43.47,43.47,0,0,1,193.38,151.34Z" style="fill:#37474f"></path><path d="M167.31,195.7c0-4.89,4.07-18.24,8.75-26.06s19.63-13.23,21.78-13.25c5.19-.06,7.06,1.39,7.85.87s-4.81-4-6.33-4.82-5.58-2.56-7.82-2.35-16,2.54-20.67,8.8-10.65,23.34-9.05,27.49c.39,1,1.79,1.56,2.32,3,.69,1.86,1.24,4,1.9,5.31C166.58,195.71,167.31,196.13,167.31,195.7Z" style="fill:#455a64"></path><path d="M177,166.2a24.51,24.51,0,0,1-3.54-2.23,18.33,18.33,0,0,1-3.09-2.88.08.08,0,0,0-.13.09,13.69,13.69,0,0,0,2.85,3.27,11.63,11.63,0,0,0,3.81,2C177.08,166.51,177.16,166.28,177,166.2Z" style="fill:#263238"></path><path d="M166.93,190.85c-.16-.34-.41-.64-.6-1a5.93,5.93,0,0,1-.53-1.18,11.13,11.13,0,0,0-.72-2.32,8.43,8.43,0,0,0-1.25-1.54,3.24,3.24,0,0,1-1.09-1.91c0-.1-.17-.1-.16,0,.09,1.47,1.15,2.46,1.88,3.65a15.08,15.08,0,0,1,.84,2.48,3.82,3.82,0,0,0,1.43,1.94C166.83,191.08,167,191,166.93,190.85Z" style="fill:#263238"></path><path d="M168.25,185.48c-.5-.53-1-1-1.48-1.56a17.2,17.2,0,0,1-1.17-1.75c-.35-.6-.65-1.22-1-1.82s-.89-1.39-1.25-2.12c-.05-.09-.18,0-.14.09.38.76.62,1.58,1,2.35a15.72,15.72,0,0,0,1.06,1.93,11.32,11.32,0,0,0,1.27,1.67,5.18,5.18,0,0,0,1.66,1.28C168.25,185.57,168.29,185.51,168.25,185.48Z" style="fill:#263238"></path><path d="M169.69,180.6a14.06,14.06,0,0,1-2.85-2.81c-.78-1-1.5-2.15-2.21-3.24a.08.08,0,0,0-.14.07,16.37,16.37,0,0,0,1.92,3.57,8.51,8.51,0,0,0,1.35,1.46,9.2,9.2,0,0,0,1.84,1.09C169.68,180.78,169.78,180.66,169.69,180.6Z" style="fill:#263238"></path><path d="M171.31,175.92a4.87,4.87,0,0,1-1.38-1.22c-.46-.51-.9-1-1.33-1.58s-.84-1-1.25-1.55a4.7,4.7,0,0,1-1-1.73c0-.08-.17-.06-.16,0a4.92,4.92,0,0,0,.69,1.86,13.6,13.6,0,0,0,1.23,1.83,17.2,17.2,0,0,0,1.48,1.6,3.22,3.22,0,0,0,1.64,1C171.35,176.14,171.43,176,171.31,175.92Z" style="fill:#263238"></path><path d="M172.3,170.05c-.48-.41-1-.83-1.4-1.28s-.87-.91-1.29-1.39-.89-1-1.29-1.5a.08.08,0,0,0-.14.08,13.31,13.31,0,0,0,1,1.71,14,14,0,0,0,1.28,1.49,16.2,16.2,0,0,0,1.44,1.31,5.08,5.08,0,0,0,1.65,1,.12.12,0,0,0,.13-.17A9.2,9.2,0,0,0,172.3,170.05Z" style="fill:#263238"></path><path d="M180.57,163.18c-.52-.56-1-1.11-1.61-1.63a23.88,23.88,0,0,0-5.78-3.74c-.08,0-.17.07-.09.13,2.43,1.81,4.95,3.53,7.37,5.36A.08.08,0,0,0,180.57,163.18Z" style="fill:#263238"></path><path d="M183.22,158.82a9.44,9.44,0,0,0-1.76-1.45,21.89,21.89,0,0,0-4.32-2,.09.09,0,0,0-.08.15c1.32.75,2.65,1.48,3.93,2.31a19.54,19.54,0,0,1,1.83,1.3c.59.48,1.05,1.07,1.61,1.57,0,0,.12,0,.1-.07A5.66,5.66,0,0,0,183.22,158.82Z" style="fill:#263238"></path><path d="M187.14,156.64a10.25,10.25,0,0,0-1.63-1.46,12.24,12.24,0,0,0-3.7-1.85.08.08,0,0,0-.05.15,23.87,23.87,0,0,1,3.52,2.21c.55.41,1.09.86,1.62,1.3s1,1,1.58,1.38c.05,0,.09,0,.07-.08A11.61,11.61,0,0,0,187.14,156.64Z" style="fill:#263238"></path><path d="M189.9,154c-.54-.38-1.09-.73-1.66-1.08a6,6,0,0,0-1.75-.83c-.1,0-.13.1-.06.15,1,.72,2.09,1.47,3.13,2.21A17.24,17.24,0,0,1,192,157a.06.06,0,0,0,.09-.06A6.26,6.26,0,0,0,189.9,154Z" style="fill:#263238"></path><path d="M193.5,153a9.89,9.89,0,0,0-3.39-1.8c-.08,0-.14.11-.05.15a12.17,12.17,0,0,1,3.1,2,17.15,17.15,0,0,1,2.53,2.72c0,.05.13,0,.1,0A8.3,8.3,0,0,0,193.5,153Z" style="fill:#263238"></path><path d="M198.43,154.83a5.82,5.82,0,0,0-.47-.71,8.66,8.66,0,0,0-1.17-1.25,17.75,17.75,0,0,0-2.91-1.94c-.09-.05-.16.09-.07.15a14.08,14.08,0,0,1,2.73,2,11,11,0,0,1,1.13,1.23c.17.21.33.43.48.65a3.92,3.92,0,0,0,.45.67.09.09,0,0,0,.14-.07A2.23,2.23,0,0,0,198.43,154.83Z" style="fill:#263238"></path><path d="M201.37,154.89a11.7,11.7,0,0,0-1-1,10.4,10.4,0,0,0-1.08-.91c-.39-.28-.79-.55-1.16-.85a.08.08,0,1,0-.1.13,8.34,8.34,0,0,1,1.1,1l1,1c.33.32.66.63,1,1s.62.7,1,1a.07.07,0,0,0,.1-.09A5.9,5.9,0,0,0,201.37,154.89Z" style="fill:#263238"></path><path d="M158.11,247.91c-4.39,43.17,7.27,99.94,17.31,103.09,14.78,4.64,69.32-7.5,86.63-14.13,5.23-2-9.25-47.58-14.35-44.45-6.18,3.8-51.83,10.76-52.54,10.93-1.51.39-12.28-31.5-20.26-53.07C165.77,225.6,159.89,230.33,158.11,247.91Z" style="fill:#eb9481"></path><path d="M300.13,276.36c3.18,3.61.6,7.87.6,7.87a10.25,10.25,0,0,1,5.59,4.16c2.15,3.63-2.59,8.61-2.59,8.61a12.65,12.65,0,0,1,5.2,5.33c1.71,3.68-2.36,9.38-2.36,9.38a11.1,11.1,0,0,1,1.62,7.57c-1.32,7-11.44,11-17.85,13.53s-29,3.92-32.95,4.56l-14.88-41S268,276.6,275.93,274.64C282.64,273,296.57,272.31,300.13,276.36Z" style="fill:#eb9481"></path><path d="M300.17,283.69c-7.56,0-14.69,2.32-21.94,4.19a.13.13,0,0,0,.07.25c7.19-1.94,14.67-2.43,21.92-4.09A.18.18,0,0,0,300.17,283.69Z" style="fill:#263238"></path><path d="M303.38,296.51a19.87,19.87,0,0,0-5,1.2c-1.74.54-3.47,1.12-5.2,1.72q-5.18,1.8-10.26,3.86c-.15.06-.09.31.07.25,3.44-1.19,6.9-2.33,10.39-3.38q2.63-.78,5.25-1.53a23.11,23.11,0,0,0,4.9-1.63A.27.27,0,0,0,303.38,296.51Z" style="fill:#263238"></path><path d="M306.42,311.76c-1.48,0-3.08.8-4.45,1.31-1.56.58-3.13,1.16-4.7,1.72-3.13,1.13-6.27,2.25-9.44,3.27-.16.05-.09.3.07.25,3.23-1,6.47-2,9.69-3q2.37-.76,4.73-1.56a12.93,12.93,0,0,0,4.17-1.8C306.55,311.86,306.5,311.76,306.42,311.76Z" style="fill:#263238"></path><path d="M240.86,292.89l15,49.15S183,359.73,173,350.86s-20.42-69.41-15.78-101.33,14.07-11,18.67.75c4.28,10.93,19.13,51.12,20.15,51.41S240.86,292.89,240.86,292.89Z" style="fill:#60B1B6"></path><path d="M241,292.41s-14.92,2.48-21.85,3.95-13.87,2.78-20.69,4.56a52.27,52.27,0,0,0-10.7,4c-.17.08,0,.32.13.25a92.71,92.71,0,0,1,10.08-3c3.28-.85,6.61-1.53,9.93-2.24,6.91-1.47,13.83-2.91,20.72-4.46,3.81-.86,8.34-1.39,12.12-2.46h0c0,.08.47,1.36.5,1.44a.43.43,0,0,0,.15.2.09.09,0,0,0,.16,0A10.21,10.21,0,0,0,241,292.41Z" style="fill:#263238"></path><path d="M182.78,265.89a.07.07,0,0,0-.13,0c.49,2.46,1.11,4.89,1.74,7.31-.4-1-.78-1.9-1.19-2.85-1.3-3.07-2.65-6.11-3.9-9.2,0-.07-.15,0-.12,0,1.9,5.49,3.7,11,5.83,16.43s4.32,10.76,6.7,16c.65,1.45,1.34,2.88,2,4.31.36.76.71,1.52,1.07,2.27s.78,1.47,1.17,2.21c.05.1.21,0,.17-.07-.24-.66-.42-1.34-.69-2l-.84-2.09c-.52-1.33-1-2.66-1.54-4-1.07-2.69-2.17-5.36-3.27-8-1.65-4-3.28-8-4.93-11.93C184.23,271.53,183.58,268.69,182.78,265.89Z" style="fill:#263238"></path><path d="M231.74,299.77c.32,1.4.52,2.81.86,4.21s.67,2.7,1,4q1.11,4.1,2.25,8.17c1.52,5.45,3.07,10.9,4.77,16.3.48,1.53,1,3.06,1.45,4.6a31.59,31.59,0,0,0,1.53,4.35c0,.1.18,0,.17-.06a30.51,30.51,0,0,0-.9-4.2c-.35-1.35-.68-2.7-1-4-.68-2.75-1.41-5.47-2.16-8.2-1.48-5.37-3-10.74-4.56-16.08q-.69-2.31-1.42-4.6c-.49-1.55-1.11-3-1.64-4.57C232,299.48,231.69,299.53,231.74,299.77Z" style="fill:#263238"></path><path d="M171.39,349a15.47,15.47,0,0,1-2.69-4c-.73-1.43-1.43-2.89-2-4.37s-1.19-3-1.78-4.48-1.05-3-1.57-4.56a184.75,184.75,0,0,1-4.9-18.62c-.34-1.57-.64-3.15-.93-4.73s-.61-3.15-.85-4.73c-.48-3.17-1-6.34-1.37-9.53s-.7-6.37-1-9.56c-.14-1.6-.21-3.2-.3-4.8s-.17-3.2-.23-4.8c1,6.33,2,12.65,3.06,18.94s2.23,12.56,3.56,18.79,2.76,12.45,4.43,18.59c.87,3.06,1.73,6.14,2.77,9.15.48,1.52,1,3,1.61,4.49.33.72.61,1.47,1,2.17l.55,1.07C170.91,348.32,171.16,348.63,171.39,349Z" style="fill:#263238"></path><path d="M152.53,278.73a27.74,27.74,0,0,1,1.29,2.91c.18.49.36,1,.52,1.49s.33,1,.45,1.53a13.31,13.31,0,0,1-1.44-2.84A14.22,14.22,0,0,1,152.53,278.73Z" style="fill:#263238"></path></g><g id="freepik--Floor--inject-19"><polygon points="48.03 452.48 129.77 452.24 211.51 452.15 375 451.98 538.49 452.15 620.23 452.24 701.97 452.48 620.23 452.73 538.49 452.81 375 452.98 211.51 452.81 129.77 452.73 48.03 452.48" style="fill:#263238"></polygon></g></svg>